<?xml version="1.0" standalone="no"?>
<!DOCTYPE svg PUBLIC "-//W3C//DTD SVG 20010904//EN"
 "http://www.w3.org/TR/2001/REC-SVG-20010904/DTD/svg10.dtd">
<svg version="1.0" xmlns="http://www.w3.org/2000/svg"
 width="3240.000000pt" height="2160.000000pt" viewBox="0 0 3240.000000 2160.000000"
 preserveAspectRatio="xMidYMid meet">

<g transform="translate(0.000000,2160.000000) scale(0.100000,-0.100000)"
fill="#000000" stroke="none">
<path d="M0 16627 l0 -4973 2388 1 2387 0 587 -197 c323 -109 625 -207 671
-218 80 -18 128 -19 967 -20 l882 -2 37 35 c53 51 91 67 161 67 130 0 220 -90
220 -220 0 -69 -21 -118 -69 -164 -17 -17 -31 -36 -31 -43 0 -7 17 -32 39 -56
54 -60 61 -77 61 -157 0 -100 -33 -158 -122 -213 -35 -22 -35 -42 -1 -64 86
-53 123 -114 123 -203 0 -130 -92 -220 -222 -220 -72 1 -126 28 -178 89 l-43
51 -891 -2 -891 -3 -635 -213 c-349 -117 -643 -217 -652 -222 -25 -14 -3577
-14 -3613 0 -16 6 -241 10 -601 10 l-574 0 0 -4845 0 -4845 16200 0 16200 0 0
4845 0 4845 -1057 -5 c-2905 -14 -4599 -15 -4643 -4 -25 6 -153 47 -285 90
-132 43 -305 99 -385 124 -80 25 -152 49 -161 54 -29 17 -434 149 -489 161
-40 8 -288 10 -883 8 l-827 -3 -41 -48 c-54 -62 -103 -87 -174 -87 -134 0
-225 89 -225 220 0 89 37 150 123 203 37 24 34 42 -10 71 -79 50 -113 110
-113 201 0 72 24 120 92 179 l53 46 -53 46 c-69 61 -92 106 -92 184 0 130 90
220 220 220 76 0 124 -23 177 -85 l39 -46 858 1 c921 1 887 -1 1022 53 34 13
108 39 165 56 57 18 302 98 544 179 l440 147 2853 -3 2852 -2 0 4975 0 4975
-16200 0 -16200 0 0 -4973z m1725 718 c72 -48 95 -88 95 -165 0 -67 -22 -117
-84 -193 l-46 -57 40 0 c28 0 40 -4 40 -14 0 -9 12 -16 28 -18 26 -3 27 -6 30
-65 l3 -63 -206 0 -205 0 0 25 c0 18 -5 25 -20 25 -17 0 -20 7 -20 49 0 49 0
49 80 117 45 38 96 89 116 113 35 46 63 116 50 128 -9 9 -37 -9 -48 -30 -4 -9
-12 -25 -17 -34 -6 -14 -21 -18 -72 -18 -59 0 -64 2 -67 23 -2 14 -10 22 -23
22 -36 0 -20 90 24 139 48 52 76 62 162 59 74 -3 84 -6 140 -43z m1429 -4 c66
-50 86 -87 86 -163 0 -65 -23 -116 -84 -191 l-46 -57 45 0 c32 0 45 -4 45 -14
0 -8 10 -16 23 -18 20 -3 22 -9 25 -65 l3 -63 -206 0 -205 0 0 25 c0 16 -6 25
-15 25 -11 0 -15 12 -15 49 0 49 0 49 83 120 91 78 131 124 153 176 19 45 18
65 -3 65 -22 0 -53 -29 -53 -50 0 -30 -25 -41 -87 -38 -51 3 -58 6 -61 26 -2
12 -10 22 -18 22 -31 0 -11 95 29 139 48 52 76 62 163 59 78 -3 83 -5 138 -47z
m474 6 c112 -69 133 -169 55 -259 -13 -15 -12 -18 5 -27 29 -15 52 -72 52
-128 0 -71 -32 -120 -100 -156 -49 -25 -63 -28 -125 -25 -75 4 -152 33 -147
56 1 8 -2 11 -7 8 -11 -7 -79 66 -91 100 -24 61 0 150 47 181 l24 16 -26 27
c-52 54 -53 151 -3 197 49 44 79 53 168 51 79 -3 90 -6 148 -41z m-1394 8 c3
-8 15 -15 26 -15 19 0 20 -6 20 -155 0 -97 4 -155 10 -155 6 0 10 -6 10 -14 0
-8 10 -16 23 -18 20 -3 22 -8 22 -68 l0 -65 -32 -3 c-32 -3 -33 -4 -33 -53 l0
-49 -75 0 c-73 0 -75 1 -75 25 0 16 -6 25 -15 25 -9 0 -15 9 -15 25 0 24 0 24
-112 27 -109 3 -113 4 -116 26 -2 12 -10 22 -18 22 -10 0 -14 14 -14 58 0 63
-12 43 197 340 l44 62 73 0 c56 0 75 -4 80 -15z m6931 -33 c83 -42 135 -108
135 -172 0 -41 -24 -96 -49 -111 -19 -13 -19 -14 14 -50 53 -59 58 -136 15
-207 -45 -73 -192 -99 -286 -51 -54 28 -119 114 -129 172 l-7 37 66 0 c50 0
68 -4 72 -15 4 -8 14 -15 24 -15 10 0 20 -9 23 -20 8 -29 52 -26 73 5 23 35
12 53 -33 57 -28 2 -41 9 -48 26 -5 12 -15 22 -22 22 -9 0 -13 17 -13 54 l0
53 42 6 c62 8 107 67 52 67 -19 0 -28 -7 -37 -30 -11 -30 -12 -30 -84 -30 -71
0 -73 1 -73 25 0 16 -6 25 -16 25 -14 0 -15 7 -11 37 11 65 66 120 134 133 48
10 119 2 158 -18z m375 -6 c0 -8 10 -16 23 -18 l22 -3 0 -290 0 -290 -77 -3
c-78 -3 -78 -3 -78 23 0 15 -6 25 -15 25 -12 0 -15 31 -17 198 -3 196 -3 197
-25 200 -17 3 -23 10 -23 28 0 15 -6 24 -15 24 -12 0 -15 13 -15 60 l0 60 110
0 c89 0 110 -3 110 -14z m6867 -7 c46 -17 114 -80 134 -123 32 -71 29 -76 -50
-76 -62 0 -70 2 -85 25 -19 29 -66 34 -90 9 -27 -27 -18 -34 42 -34 49 0 66
-5 105 -31 65 -43 94 -80 107 -142 17 -76 -5 -151 -59 -200 -45 -41 -85 -51
-170 -45 -79 6 -125 37 -173 118 -43 74 -53 129 -46 269 6 125 37 187 113 229
26 15 135 15 172 1z m12477 -34 c106 -73 125 -170 49 -257 -13 -15 -12 -18 5
-27 29 -15 52 -72 52 -128 0 -71 -32 -120 -100 -156 -49 -25 -63 -28 -125 -25
-92 5 -139 29 -193 99 -65 85 -69 168 -11 230 l30 32 -28 39 c-20 30 -27 52
-27 89 0 58 22 93 80 127 34 20 50 22 125 20 81 -3 88 -5 143 -43z m-13324 21
c0 -8 10 -16 23 -18 l22 -3 0 -290 0 -290 -77 -3 c-78 -3 -78 -3 -78 23 0 15
-6 25 -15 25 -12 0 -15 31 -17 198 -3 196 -3 197 -25 200 -17 3 -23 10 -23 28
0 15 -6 24 -15 24 -12 0 -15 13 -15 60 l0 60 110 0 c89 0 110 -3 110 -14z
m7220 0 c0 -8 10 -16 23 -18 19 -3 22 -10 25 -53 2 -44 -9 -79 -97 -290 l-99
-240 -77 -3 -77 -3 6 26 c5 21 3 25 -15 25 -27 0 -29 -5 69 217 l80 182 -87 3
c-78 3 -87 5 -96 26 -5 12 -15 22 -22 22 -9 0 -13 18 -13 60 l0 60 190 0 c158
0 190 -2 190 -14z m6900 0 c0 -8 10 -16 23 -18 l22 -3 0 -290 0 -290 -77 -3
c-78 -3 -78 -3 -78 23 0 15 -6 25 -15 25 -12 0 -15 31 -17 198 -3 196 -3 197
-25 200 -17 3 -23 10 -23 28 0 15 -6 24 -15 24 -12 0 -15 13 -15 60 l0 60 110
0 c89 0 110 -3 110 -14z m290 0 c0 -8 10 -16 23 -18 l22 -3 0 -290 0 -290 -77
-3 c-78 -3 -78 -3 -78 23 0 15 -6 25 -15 25 -12 0 -15 31 -17 198 -3 196 -3
197 -25 200 -17 3 -23 10 -23 28 0 15 -6 24 -15 24 -12 0 -15 13 -15 60 l0 60
110 0 c89 0 110 -3 110 -14z m-27260 -171 c0 -9 9 -15 25 -15 24 0 25 -2 25
-65 l0 -65 -180 0 -180 0 0 25 c0 16 -6 25 -15 25 -12 0 -15 13 -15 55 l0 55
170 0 c144 0 170 -2 170 -15z m13280 -70 c0 -10 10 -15 30 -15 l30 0 0 -65 0
-65 -180 0 -180 0 0 25 c0 18 -5 25 -20 25 -18 0 -20 7 -20 55 l0 55 170 0
c144 0 170 -2 170 -15z m13370 0 c0 -10 10 -15 30 -15 l30 0 0 -65 0 -65 -180
0 -180 0 0 25 c0 18 -5 25 -20 25 -18 0 -20 7 -20 55 l0 55 170 0 c144 0 170
-2 170 -15z m-26200 -440 c34 -23 37 -30 39 -80 3 -67 -14 -103 -82 -172 l-51
-53 36 0 c46 0 89 34 117 93 26 54 27 103 1 145 -21 34 -17 44 7 15 11 -14 15
-15 20 -4 3 7 18 27 33 44 23 26 35 31 89 35 54 4 66 1 100 -22 35 -25 38 -30
40 -81 3 -67 -14 -103 -82 -172 l-51 -53 36 0 c46 0 89 34 117 93 26 54 27
103 1 145 -11 17 -16 32 -11 32 14 0 41 -65 41 -99 0 -41 -23 -94 -56 -134
-27 -32 -27 -32 -6 -35 12 -2 22 -10 22 -17 0 -7 10 -15 23 -17 17 -2 23 -10
25 -39 5 -55 -8 -60 -154 -57 -121 3 -130 4 -139 25 l-9 21 -11 -21 c-10 -21
-17 -22 -145 -22 -130 0 -135 1 -145 23 -5 12 -15 22 -22 22 -8 0 -13 14 -13
35 0 32 10 45 85 119 57 55 85 90 85 105 0 27 -18 18 -31 -16 -8 -22 -14 -24
-56 -21 -41 3 -48 6 -51 26 -2 12 -10 22 -18 22 -8 0 -14 6 -15 13 0 6 -6 -10
-13 -38 l-11 -50 -55 0 c-51 0 -55 2 -52 22 2 15 -3 22 -17 25 -19 3 -19 6 11
76 29 70 31 72 65 72 27 0 34 -3 29 -15 -4 -10 1 -15 15 -15 12 0 23 -8 26
-20 5 -18 8 -16 27 13 28 42 60 57 120 57 37 0 59 -6 86 -25z m-1377 -11 c53
-27 116 -83 137 -122 l19 -37 1 88 0 87 50 0 c37 0 50 -4 50 -14 0 -8 10 -16
22 -18 16 -2 24 -12 28 -32 l5 -29 35 46 c35 46 36 46 94 47 51 0 57 -2 46
-15 -10 -13 -9 -15 9 -15 12 0 21 6 21 15 0 13 23 15 150 15 124 0 150 -3 150
-14 0 -9 12 -16 28 -18 25 -3 27 -6 27 -48 l0 -45 -47 -3 -48 -3 0 -155 0
-155 -57 3 c-51 3 -58 6 -61 26 -2 14 -10 22 -23 22 -18 0 -19 8 -19 129 l0
130 -27 3 c-20 2 -29 9 -31 26 -6 42 -39 25 -103 -58 -35 -43 -65 -77 -67 -75
-2 2 26 42 62 88 36 47 66 90 66 96 0 6 -11 11 -25 11 -19 0 -39 -18 -85 -76
l-60 -76 19 -24 c11 -14 22 -24 24 -22 6 5 37 -23 37 -34 0 -5 -6 -6 -12 -2
-9 5 -8 2 1 -9 8 -10 16 -15 19 -12 7 6 32 -15 32 -27 0 -5 -5 -6 -12 -2 -7 4
-8 3 -4 -5 4 -6 11 -9 15 -6 11 6 82 -85 75 -96 -3 -5 -31 -9 -64 -9 l-58 0
-54 70 -53 71 -5 -68 -5 -68 -55 0 c-49 0 -55 2 -58 23 -2 12 -10 22 -18 22
-10 0 -14 13 -14 48 l-1 47 -16 -30 c-41 -80 -100 -115 -188 -115 -70 0 -122
25 -168 82 -52 65 -67 101 -67 163 0 119 74 194 193 195 34 0 71 -7 90 -16z
m8047 -39 c34 -23 37 -30 39 -80 3 -67 -14 -103 -82 -172 l-51 -53 36 0 c46 0
89 34 117 93 26 54 27 103 1 145 -21 34 -17 44 7 15 11 -14 15 -15 20 -4 3 7
18 27 33 44 23 26 35 31 89 35 54 4 66 1 100 -22 35 -25 38 -30 40 -81 3 -67
-14 -103 -82 -172 l-51 -53 36 0 c46 0 89 34 117 93 26 54 27 103 1 145 -11
17 -16 32 -11 32 14 0 41 -65 41 -99 0 -41 -23 -94 -56 -134 -27 -32 -27 -32
-6 -35 12 -2 22 -10 22 -17 0 -7 10 -15 23 -17 17 -2 23 -10 25 -39 5 -55 -8
-60 -154 -57 -121 3 -130 4 -139 25 l-9 21 -11 -21 c-10 -21 -17 -22 -145 -22
-130 0 -135 1 -145 23 -5 12 -15 22 -22 22 -8 0 -13 14 -13 35 0 32 10 45 85
119 57 55 85 90 85 105 0 27 -18 18 -31 -16 -8 -22 -14 -24 -56 -21 -41 3 -48
6 -51 26 -2 12 -10 22 -18 22 -8 0 -14 6 -15 13 0 6 -6 -10 -13 -38 l-11 -50
-55 0 c-51 0 -55 2 -52 22 2 17 -3 22 -22 25 l-25 3 31 73 c29 70 31 72 65 72
27 0 34 -3 29 -15 -4 -11 2 -15 20 -15 17 0 28 -7 31 -20 5 -18 8 -16 27 13
28 42 60 57 120 57 37 0 59 -6 86 -25z m-1377 -11 c53 -27 116 -83 137 -122
l19 -37 1 88 0 87 50 0 c37 0 50 -4 50 -14 0 -8 10 -16 22 -18 16 -2 24 -12
28 -32 l5 -29 35 46 c35 46 36 46 94 47 51 0 57 -2 46 -15 -10 -13 -9 -15 9
-15 12 0 21 6 21 15 0 13 23 15 150 15 124 0 150 -3 150 -14 0 -9 12 -16 28
-18 25 -3 27 -6 27 -48 l0 -45 -47 -3 -48 -3 0 -155 0 -155 -57 3 c-51 3 -58
6 -61 26 -2 14 -10 22 -23 22 -18 0 -19 8 -19 129 l0 130 -27 3 c-20 2 -29 9
-31 26 -6 42 -39 25 -103 -58 -35 -43 -65 -77 -67 -75 -2 2 26 42 62 88 36 47
66 90 66 96 0 6 -11 11 -25 11 -19 0 -39 -18 -85 -76 l-60 -76 19 -24 c11 -14
22 -24 24 -22 6 5 37 -23 37 -34 0 -5 -6 -6 -12 -2 -9 5 -8 2 1 -9 8 -10 16
-15 19 -12 7 6 32 -15 32 -27 0 -5 -5 -6 -12 -2 -7 4 -8 3 -4 -5 4 -6 11 -9
15 -6 11 6 82 -85 75 -96 -3 -5 -31 -9 -64 -9 l-58 0 -54 70 -53 71 -5 -68 -5
-68 -55 0 c-49 0 -55 2 -58 23 -2 12 -10 22 -18 22 -10 0 -14 13 -14 48 l-1
47 -16 -30 c-41 -80 -100 -115 -188 -115 -70 0 -122 25 -168 82 -52 65 -67
101 -67 163 0 119 74 194 193 195 34 0 71 -7 90 -16z m8134 -65 c43 -38 80
-83 40 -50 -15 12 -17 10 -17 -27 0 -60 -14 -87 -77 -153 l-56 -59 46 0 c39 0
49 5 73 33 41 48 57 95 51 147 -5 38 -1 51 22 85 34 50 62 65 126 65 44 0 58
-6 105 -41 30 -23 60 -51 67 -63 28 -49 11 -128 -43 -203 -10 -14 -12 -23 -5
-23 6 0 11 -9 11 -19 0 -14 8 -21 28 -23 23 -2 28 -8 30 -36 6 -57 -6 -62
-147 -62 -131 0 -151 6 -151 42 0 10 -4 18 -10 18 -5 0 -10 -8 -10 -18 0 -36
-20 -42 -150 -42 -130 0 -150 6 -150 42 0 10 -7 18 -15 18 -11 0 -15 11 -15
37 0 32 8 44 79 110 73 67 101 106 88 120 -3 3 -13 -9 -22 -27 -15 -29 -19
-31 -63 -28 -44 3 -47 5 -47 31 1 19 -4 27 -16 27 -10 0 -19 5 -21 12 -2 6
-15 -14 -27 -45 -23 -56 -24 -57 -62 -57 -37 0 -39 2 -39 30 0 21 -5 30 -16
30 -14 0 -15 8 -10 48 4 32 -17 -17 -65 -150 l-72 -198 -67 0 c-65 0 -68 1
-75 27 -3 15 -12 32 -19 37 -7 6 -28 54 -46 106 -18 52 -48 137 -66 188 l-33
92 54 0 c44 0 55 -3 60 -19 3 -10 13 -21 23 -23 12 -3 27 -34 46 -96 17 -51
32 -89 35 -86 3 3 22 53 41 112 l35 107 53 3 c50 3 53 2 47 -17 -5 -16 -2 -21
14 -21 10 0 26 -3 35 -6 12 -5 16 0 16 20 0 25 3 26 51 26 46 0 51 -2 46 -19
-4 -15 2 -20 26 -24 25 -3 36 1 51 20 25 32 50 42 113 42 47 1 56 -3 100 -40z
m6650 0 c43 -38 80 -83 40 -50 -15 12 -17 10 -17 -27 0 -60 -14 -87 -77 -153
l-56 -59 46 0 c39 0 49 5 73 33 41 48 57 95 51 147 -5 38 -1 51 22 85 34 50
62 65 128 65 46 0 57 -4 100 -41 60 -52 72 -73 73 -127 0 -41 -19 -87 -56
-139 -15 -21 -15 -23 0 -23 9 0 16 -8 16 -19 0 -13 8 -21 23 -23 17 -2 23 -11
25 -36 6 -57 -6 -62 -147 -62 -133 0 -150 5 -152 44 -1 21 -1 21 -6 1 -11 -42
-21 -45 -152 -45 -131 0 -151 6 -151 42 0 10 -7 18 -15 18 -11 0 -15 11 -15
37 0 32 8 44 79 110 73 67 101 106 88 120 -3 3 -13 -9 -22 -27 -15 -29 -19
-31 -63 -28 -44 3 -47 5 -47 31 1 19 -4 27 -16 27 -10 0 -19 5 -21 12 -2 6
-15 -14 -27 -45 -23 -56 -24 -57 -62 -57 -37 0 -39 2 -39 30 0 23 -5 30 -19
30 -11 0 -21 7 -23 16 -2 8 -29 -59 -62 -150 l-59 -166 -67 0 c-65 0 -68 1
-75 27 -3 15 -12 32 -19 37 -7 6 -28 54 -46 106 -18 52 -48 137 -66 188 l-33
92 54 0 c44 0 55 -3 60 -19 3 -10 13 -21 23 -23 12 -3 27 -34 46 -96 17 -51
32 -89 35 -86 3 3 22 53 41 112 l35 107 53 3 c49 3 53 1 48 -16 -5 -16 -1 -20
24 -24 26 -4 30 -1 30 19 0 21 4 23 51 23 46 0 51 -2 46 -19 -4 -16 2 -20 32
-23 29 -4 39 0 55 20 25 31 50 41 113 41 47 1 56 -3 100 -40z m6660 0 c43 -38
80 -83 40 -50 -15 12 -17 10 -17 -27 0 -60 -14 -87 -77 -153 l-56 -59 46 0
c39 0 49 5 73 33 41 48 57 95 51 147 -5 38 -1 51 22 85 34 50 62 65 128 65 46
0 57 -4 100 -41 60 -52 72 -73 73 -127 0 -41 -19 -87 -56 -139 -15 -21 -15
-23 0 -23 9 0 16 -8 16 -19 0 -13 8 -21 23 -23 17 -2 23 -11 25 -36 6 -57 -6
-62 -147 -62 -133 0 -150 5 -152 44 -1 21 -1 21 -6 1 -11 -42 -21 -45 -152
-45 -131 0 -151 6 -151 42 0 10 -7 18 -15 18 -11 0 -15 11 -15 37 0 32 8 44
79 110 73 67 101 106 88 120 -3 3 -13 -9 -22 -27 -15 -29 -19 -31 -63 -28 -44
3 -47 5 -47 31 1 19 -4 27 -16 27 -10 0 -19 5 -21 12 -2 6 -15 -14 -27 -45
-23 -56 -24 -57 -62 -57 -37 0 -39 2 -39 30 0 23 -5 30 -19 30 -11 0 -21 7
-23 16 -2 8 -29 -59 -62 -150 l-59 -166 -67 0 c-65 0 -68 1 -75 27 -3 15 -12
32 -19 37 -7 6 -28 54 -46 106 -18 52 -48 137 -66 188 l-33 92 54 0 c44 0 55
-3 60 -19 3 -10 13 -21 23 -23 12 -3 27 -34 46 -96 17 -51 32 -89 35 -86 3 3
22 53 41 112 l35 107 53 3 c49 3 53 1 48 -16 -5 -16 -1 -20 24 -24 26 -4 30
-1 30 19 0 21 4 23 51 23 46 0 51 -2 46 -19 -4 -16 2 -20 32 -23 29 -4 39 0
55 20 25 31 50 41 113 41 47 1 56 -3 100 -40z m-14865 3 c7 -10 21 -21 30 -25
10 -3 39 -39 65 -78 l48 -72 3 96 3 97 44 0 c38 0 45 -3 45 -19 0 -14 8 -21
28 -23 24 -3 28 -8 32 -46 l5 -43 20 37 c11 21 40 50 64 66 37 23 56 28 106
28 39 0 71 -6 92 -17 39 -22 104 -80 101 -90 -1 -5 1 -29 6 -55 13 -86 -31
-175 -106 -214 -39 -20 -138 -20 -178 1 -30 16 -31 16 -21 -3 16 -30 91 -62
144 -62 51 0 109 20 140 48 58 52 75 166 37 245 -20 40 -20 41 -1 20 10 -13
24 -45 31 -72 22 -94 -30 -201 -117 -237 -47 -20 -137 -18 -181 5 -46 24 -71
51 -111 121 l-31 55 0 -97 0 -98 -54 0 c-53 0 -54 1 -94 53 -22 28 -54 74 -71
101 l-30 49 -3 -99 -3 -99 -55 0 c-53 0 -55 1 -58 28 -2 19 -9 27 -23 27 -18
0 -19 9 -19 195 l0 195 49 0 c37 0 53 -5 63 -18z m6659 -9 c13 -16 23 -31 21
-35 -1 -5 3 -7 9 -5 6 1 14 -4 17 -12 3 -9 0 -11 -8 -6 -9 5 -11 4 -6 -4 4 -6
11 -9 16 -6 10 6 73 -91 66 -103 -3 -5 1 -9 9 -9 12 0 15 20 15 104 l0 103 45
0 c38 0 45 -3 45 -19 0 -13 8 -21 23 -23 22 -3 22 -4 25 -205 l2 -203 -55 0
-55 0 -67 102 -68 101 -5 -99 -5 -99 -55 0 c-53 0 -55 1 -58 28 -2 15 -9 27
-18 27 -12 0 -14 32 -14 195 l0 195 48 0 c40 0 52 -5 73 -27z m576 10 c39 -22
104 -80 101 -90 -1 -5 1 -29 6 -55 13 -86 -31 -175 -106 -214 -39 -20 -138
-20 -178 1 -30 16 -31 16 -21 -3 16 -30 91 -62 144 -62 51 0 109 20 140 48 58
52 75 166 37 245 -20 40 -20 41 -1 20 10 -13 24 -45 31 -72 22 -94 -30 -201
-117 -237 -44 -19 -137 -18 -176 2 -49 25 -75 53 -113 120 -63 112 -39 230 59
288 52 32 145 36 194 9z m6084 -10 c13 -16 23 -31 21 -35 -1 -5 3 -7 9 -5 6 1
14 -4 17 -12 3 -9 0 -11 -8 -6 -9 5 -11 4 -6 -4 4 -6 11 -9 16 -6 10 6 73 -91
66 -103 -3 -5 1 -9 9 -9 12 0 15 20 15 104 l0 103 45 0 c38 0 45 -3 45 -19 0
-13 8 -21 23 -23 22 -3 22 -4 25 -205 l2 -203 -55 0 -55 0 -67 102 -68 101 -5
-99 -5 -99 -55 0 c-53 0 -55 1 -58 28 -2 15 -9 27 -18 27 -12 0 -14 32 -14
195 l0 195 48 0 c40 0 52 -5 73 -27z m576 10 c39 -22 104 -80 101 -90 -1 -5 1
-29 6 -55 13 -86 -31 -175 -106 -214 -39 -20 -138 -20 -178 1 -30 16 -31 16
-21 -3 16 -30 91 -62 144 -62 51 0 109 20 140 48 58 52 75 166 37 245 -20 40
-20 41 -1 20 10 -13 24 -45 31 -72 22 -94 -30 -201 -117 -237 -44 -19 -137
-18 -176 2 -49 25 -75 53 -113 120 -63 112 -39 230 59 288 52 32 145 36 194 9z
m-9955 -153 c20 -28 26 -30 84 -30 l62 0 153 -217 c183 -261 195 -277 202
-259 11 29 -11 67 -142 241 -75 99 -153 206 -173 237 l-38 58 265 0 264 0 23
-30 c20 -28 27 -30 83 -30 48 0 66 -4 79 -19 53 -59 376 -528 373 -542 -5 -19
-360 -521 -381 -538 -9 -8 -92 -11 -286 -9 -239 3 -274 5 -283 19 -8 12 -5 24
12 48 13 18 22 34 20 35 -2 2 -22 7 -44 10 -39 6 -41 6 -88 -54 l-48 -60 -276
2 c-241 3 -277 5 -286 19 -8 12 -5 24 12 47 27 39 18 45 -71 52 l-68 5 185
250 c105 141 185 258 185 271 0 12 -71 117 -163 240 -89 120 -173 234 -185
252 l-23 32 265 0 265 0 23 -30z m6631 1 c23 -27 30 -30 105 -33 l81 -3 -19
33 -19 32 264 0 264 0 23 -30 c21 -29 25 -30 98 -30 67 0 79 -3 97 -22 57 -63
374 -525 370 -539 -5 -19 -360 -521 -381 -538 -9 -8 -91 -11 -286 -9 -239 3
-274 5 -283 19 -8 12 -5 24 12 48 24 33 23 33 -29 45 -31 6 -35 4 -89 -62
l-43 -52 -275 2 c-241 3 -277 5 -286 19 -8 12 -5 24 12 47 28 40 19 46 -86 52
l-82 5 184 249 c105 142 185 259 185 271 0 12 -71 118 -163 241 -89 120 -173
234 -185 252 l-23 32 264 0 265 0 25 -29z m-20093 -6 c21 -22 32 -25 96 -25
67 0 74 -2 93 -27 l22 -28 -16 39 c-8 22 -20 45 -26 53 -10 11 34 13 253 13
l265 0 23 -25 c20 -21 32 -25 85 -25 51 0 65 -4 82 -22 34 -39 365 -510 370
-527 3 -13 -320 -484 -374 -543 -15 -17 -38 -18 -288 -18 -238 0 -274 2 -286
16 -11 14 -10 21 4 46 10 17 16 32 15 33 -2 1 -19 4 -38 7 -33 5 -38 2 -78
-48 l-43 -54 -273 0 c-239 0 -275 2 -287 16 -11 14 -10 21 4 46 10 17 15 33
12 37 -3 3 -42 8 -85 11 l-80 5 185 249 c108 145 185 258 185 271 0 13 -69
114 -163 241 -89 120 -173 234 -185 252 l-23 32 264 0 264 0 23 -25z m6720
-30 c21 -23 31 -25 108 -25 l84 0 -16 25 -16 25 263 0 264 0 23 -25 c21 -23
31 -25 105 -25 72 0 84 -3 102 -22 56 -63 374 -525 370 -539 -5 -17 -336 -488
-370 -526 -20 -23 -23 -23 -293 -23 -237 0 -273 2 -285 16 -11 14 -10 21 4 45
18 33 14 38 -39 42 -24 2 -36 -6 -72 -50 l-43 -53 -273 0 c-239 0 -275 2 -287
16 -11 14 -10 21 4 46 10 17 15 33 11 37 -3 3 -48 8 -100 11 l-94 5 185 249
c110 148 185 258 185 271 0 13 -67 112 -163 241 -89 121 -173 234 -185 252
l-23 32 264 0 264 0 23 -25z m-7522 -452 c-2 -11 -16 -20 -38 -23 -55 -8
-4082 -5 -4107 4 -13 4 -23 14 -23 22 0 12 282 14 2086 14 1974 0 2085 -1
2082 -17z m13350 0 c-2 -13 -16 -19 -48 -23 -72 -8 -4073 -4 -4097 4 -13 4
-23 14 -23 22 0 12 282 14 2086 14 1981 0 2085 -1 2082 -17z m6730 0 c-2 -11
-16 -20 -38 -23 -55 -8 -4082 -5 -4107 4 -13 4 -23 14 -23 22 0 12 282 14
2086 14 1974 0 2085 -1 2082 -17z m-13330 -10 c-2 -13 -16 -20 -43 -23 -67 -8
-4089 -4 -4107 4 -10 5 -18 14 -18 22 0 12 310 14 2086 14 1981 0 2085 -1
2082 -17z m20000 0 c-2 -13 -16 -20 -43 -23 -67 -8 -4089 -4 -4107 4 -10 5
-18 14 -18 22 0 12 310 14 2086 14 1981 0 2085 -1 2082 -17z m-28718 -233 c0
-11 -7 -20 -15 -20 -8 0 -15 -9 -15 -20 0 -13 7 -20 20 -20 13 0 20 -7 20 -20
0 -13 -7 -20 -20 -20 -18 0 -20 -7 -20 -85 0 -84 0 -85 -25 -85 -25 0 -25 1
-25 85 0 50 -4 85 -10 85 -5 0 -10 9 -10 20 0 11 5 20 10 20 6 0 10 9 10 20 0
26 34 60 60 60 13 0 20 -7 20 -20z m-400 -130 l0 -140 -25 0 c-14 0 -25 5 -25
12 0 9 -3 9 -12 0 -17 -17 -89 -15 -115 3 -33 23 -48 83 -33 129 6 20 21 43
33 51 25 17 80 20 108 5 17 -10 19 -7 19 35 0 41 2 45 25 45 l25 0 0 -140z
m-743 98 c15 -14 23 -33 23 -53 0 -50 -21 -69 -81 -75 l-54 -5 -3 -52 c-3 -45
-6 -53 -23 -53 -18 0 -19 8 -19 130 l0 130 67 0 c55 0 71 -4 90 -22z m1233 -3
c0 -20 5 -25 25 -25 18 0 25 -5 25 -20 0 -15 -7 -20 -25 -20 -24 0 -25 -2 -25
-65 0 -63 1 -65 25 -65 18 0 25 -5 25 -20 0 -16 -7 -20 -34 -20 -49 0 -66 28
-66 107 0 35 -4 63 -10 63 -5 0 -10 9 -10 20 0 11 5 20 10 20 6 0 10 11 10 25
0 20 5 25 25 25 20 0 25 -5 25 -25z m-999 -54 c19 -20 29 -40 29 -60 l0 -31
-80 0 c-44 0 -80 -2 -80 -4 0 -39 52 -64 86 -41 24 15 64 21 64 8 0 -4 -10
-17 -22 -30 -26 -28 -101 -32 -135 -8 -28 20 -46 77 -38 117 18 79 118 107
176 49z m235 4 c21 -21 24 -33 24 -105 0 -79 0 -80 -25 -80 -24 0 -25 2 -25
73 0 77 -9 97 -44 97 -42 0 -50 -16 -54 -94 -4 -67 -7 -76 -23 -76 -17 0 -19
9 -19 103 l0 103 71 2 c63 1 74 -2 95 -23z m465 15 c13 -7 19 -7 19 0 0 5 11
10 25 10 l25 0 0 -105 0 -105 -25 0 c-14 0 -25 5 -25 12 0 9 -3 9 -12 0 -17
-17 -89 -15 -115 3 -33 23 -48 83 -33 129 6 20 21 43 33 51 25 17 80 20 108 5z
m520 0 c13 -7 19 -7 19 0 0 5 11 10 25 10 l25 0 0 -105 0 -105 -25 0 c-14 0
-25 5 -25 12 0 9 -3 9 -12 0 -17 -17 -89 -15 -115 3 -33 23 -48 83 -33 129 6
20 21 43 33 51 25 17 80 20 108 5z m169 0 c0 -7 6 -7 19 0 29 15 41 12 41 -10
0 -12 -10 -24 -24 -29 -30 -12 -36 -29 -36 -102 0 -52 -2 -59 -20 -59 -19 0
-20 7 -20 105 0 98 1 105 20 105 11 0 20 -5 20 -10z m231 0 c13 -7 19 -7 19 0
0 5 11 10 25 10 l25 0 0 -105 0 -105 -25 0 c-14 0 -25 5 -25 12 0 9 -3 9 -12
0 -17 -17 -89 -15 -115 3 -33 23 -48 83 -33 129 6 20 21 43 33 51 25 17 80 20
108 5z m295 -15 c21 -21 24 -33 24 -105 0 -79 0 -80 -25 -80 -24 0 -25 2 -25
73 0 77 -9 97 -44 97 -42 0 -50 -16 -54 -94 -4 -67 -7 -76 -23 -76 -17 0 -19
9 -19 103 l0 103 71 2 c63 1 74 -2 95 -23z m6161 -201 c3 -8 -2 -23 -11 -32
-15 -15 -17 -15 -32 0 -21 21 -11 48 16 48 11 0 23 -7 27 -16z m-107 -134 l0
-140 -25 0 c-14 0 -25 5 -25 12 0 9 -3 9 -12 0 -17 -17 -89 -15 -115 3 -33 23
-48 83 -33 129 6 20 21 43 33 51 25 17 80 20 108 5 17 -10 19 -7 19 35 0 41 2
45 25 45 l25 0 0 -140z m13337 114 c3 -8 -2 -23 -11 -32 -15 -15 -17 -15 -32
0 -21 21 -11 48 16 48 11 0 23 -7 27 -16z m-14830 -16 c15 -14 23 -33 23 -53
0 -50 -21 -69 -81 -75 l-54 -5 -3 -52 c-3 -45 -6 -53 -23 -53 -18 0 -19 8 -19
130 l0 130 67 0 c55 0 71 -4 90 -22z m6720 -4 c3 -8 -2 -23 -11 -32 -15 -15
-17 -15 -32 0 -21 21 -11 48 16 48 11 0 23 -7 27 -16z m7340 -1 c92 -43 99
-185 13 -237 -41 -24 -110 -21 -151 7 -85 57 -70 191 25 233 42 18 71 17 113
-3z m5973 -43 c0 -27 4 -50 8 -50 5 0 26 22 48 50 30 38 45 49 68 50 33 0 32
-1 -38 -84 l-38 -46 57 -65 57 -65 -30 0 c-24 0 -41 12 -81 58 l-51 57 0 -57
c0 -51 -2 -58 -20 -58 -19 0 -20 7 -20 130 0 123 1 130 20 130 17 0 20 -7 20
-50z m-12869 19 c11 -11 18 -26 16 -32 -6 -19 -38 -20 -51 -1 -15 20 -46 13
-46 -10 0 -8 20 -36 45 -63 l45 -48 16 23 c9 12 27 22 41 22 l24 0 -23 -39
-23 -40 29 -30 30 -31 -31 0 c-17 0 -36 6 -42 14 -9 11 -18 10 -50 -6 -50 -24
-103 -16 -131 19 -28 36 -25 67 9 106 21 23 27 37 20 48 -14 23 -11 38 16 64
30 31 77 33 106 4z m-531 -3 c0 -11 -15 -16 -52 -18 l-53 -3 -3 -37 -3 -38 45
0 c39 0 46 -3 46 -20 0 -17 -7 -20 -45 -20 l-45 0 0 -55 c0 -48 -2 -55 -20
-55 -19 0 -20 7 -20 130 l0 130 75 0 c59 0 75 -3 75 -14z m190 -11 c0 -20 5
-25 25 -25 18 0 25 -5 25 -20 0 -15 -7 -20 -25 -20 -24 0 -25 -2 -25 -65 0
-63 1 -65 25 -65 18 0 25 -5 25 -20 0 -16 -7 -20 -34 -20 -49 0 -66 28 -66
107 0 35 -4 63 -10 63 -5 0 -10 9 -10 20 0 11 5 20 10 20 6 0 10 11 10 25 0
20 5 25 25 25 20 0 25 -5 25 -25z m737 3 c15 -14 23 -33 23 -53 0 -50 -21 -69
-81 -75 l-54 -5 -3 -52 c-3 -45 -6 -53 -23 -53 -18 0 -19 8 -19 130 l0 130 67
0 c55 0 71 -4 90 -22z m-7326 -17 c19 -20 29 -40 29 -60 l0 -31 -80 0 c-44 0
-80 -2 -80 -4 0 -39 52 -64 86 -41 24 15 64 21 64 8 0 -4 -10 -17 -22 -30 -26
-28 -101 -32 -135 -8 -28 20 -46 77 -38 117 18 79 118 107 176 49z m235 4 c21
-21 24 -33 24 -105 0 -79 0 -80 -25 -80 -24 0 -25 2 -25 73 0 77 -9 97 -44 97
-42 0 -50 -16 -54 -94 -4 -67 -7 -76 -23 -76 -17 0 -19 9 -19 103 l0 103 71 2
c63 1 74 -2 95 -23z m215 15 c13 -7 19 -7 19 0 0 5 11 10 25 10 l25 0 0 -126
c0 -125 0 -126 -29 -155 -25 -24 -37 -29 -78 -29 -51 1 -73 12 -92 48 -11 20
-9 22 12 22 14 0 30 -7 37 -15 15 -18 71 -20 88 -3 7 7 12 25 12 40 0 25 -2
27 -19 18 -29 -15 -83 -12 -108 5 -33 23 -48 83 -33 129 6 20 21 43 33 51 25
17 80 20 108 5z m159 -56 c0 -80 11 -104 48 -104 43 0 52 17 52 97 0 71 1 73
25 73 l25 0 0 -104 0 -103 -75 -1 c-105 -2 -115 9 -115 123 0 78 2 85 20 85
18 0 20 -7 20 -66z m376 41 c21 -21 24 -33 24 -105 0 -79 0 -80 -25 -80 -24 0
-25 2 -25 73 0 77 -9 97 -44 97 -42 0 -50 -16 -54 -94 -4 -67 -7 -76 -23 -76
-17 0 -19 9 -19 103 l0 103 71 2 c63 1 74 -2 95 -23z m374 -80 c0 -98 -1 -105
-20 -105 -19 0 -20 7 -20 105 0 98 1 105 20 105 19 0 20 -7 20 -105z m191 95
c13 -7 19 -7 19 0 0 5 11 10 25 10 l25 0 0 -105 0 -105 -25 0 c-14 0 -25 5
-25 12 0 9 -3 9 -12 0 -17 -17 -89 -15 -115 3 -33 23 -48 83 -33 129 6 20 21
43 33 51 25 17 80 20 108 5z m295 -15 c21 -21 24 -33 24 -105 0 -79 0 -80 -25
-80 -24 0 -25 2 -25 73 0 77 -9 97 -44 97 -42 0 -50 -16 -54 -94 -4 -67 -7
-76 -23 -76 -17 0 -19 9 -19 103 l0 103 71 2 c63 1 74 -2 95 -23z m12144 -5
c0 -7 6 -7 19 0 29 15 41 12 41 -10 0 -12 -10 -24 -24 -29 -30 -12 -36 -29
-36 -102 0 -52 -2 -59 -20 -59 -19 0 -20 7 -20 105 0 98 1 105 20 105 11 0 20
-5 20 -10z m231 0 c13 -7 19 -7 19 0 0 5 11 10 25 10 l25 0 0 -105 0 -105 -25
0 c-14 0 -25 5 -25 12 0 9 -3 9 -12 0 -17 -17 -89 -15 -115 3 -33 23 -48 83
-33 129 6 20 21 43 33 51 25 17 80 20 108 5z m259 -10 c26 -26 26 -50 0 -50
-11 0 -23 7 -26 15 -4 9 -19 15 -36 15 -44 0 -33 -32 17 -48 52 -17 65 -29 65
-63 0 -39 -24 -59 -73 -59 -49 0 -87 22 -87 51 0 22 34 27 47 6 13 -21 39 -27
59 -13 22 17 12 33 -29 41 -17 4 -42 13 -54 21 -31 19 -31 67 -1 88 32 23 94
20 118 -4z m110 -85 c0 -98 -1 -105 -20 -105 -19 0 -20 7 -20 105 0 98 1 105
20 105 19 0 20 -7 20 -105z m5541 95 c13 -7 19 -7 19 0 0 5 11 10 25 10 l25 0
0 -105 0 -105 -25 0 c-14 0 -25 5 -25 12 0 9 -3 9 -12 0 -17 -17 -89 -15 -115
3 -33 23 -48 83 -33 129 6 20 21 43 33 51 25 17 80 20 108 5z m277 -6 c21 -14
25 -14 41 0 18 16 66 21 96 10 28 -11 45 -60 45 -134 0 -68 -1 -70 -25 -70
-24 0 -25 2 -25 73 0 80 -9 97 -52 97 -37 0 -48 -24 -48 -104 0 -64 -1 -66
-25 -66 -24 0 -25 2 -25 73 0 77 -9 97 -44 97 -42 0 -50 -16 -54 -94 -4 -67
-7 -76 -23 -76 -17 0 -19 9 -19 103 l0 104 68 1 c45 0 75 -4 90 -14z m285 4
c4 -10 7 -10 18 0 7 6 30 12 52 12 87 0 130 -109 71 -179 -21 -25 -33 -31 -66
-31 -21 0 -48 5 -59 10 -18 10 -19 7 -19 -50 0 -53 -2 -60 -20 -60 -19 0 -20
7 -20 155 0 146 1 155 19 155 11 0 21 -6 24 -12z m338 2 c13 -7 19 -7 19 0 0
5 11 10 25 10 l25 0 0 -105 0 -105 -25 0 c-14 0 -25 5 -25 12 0 9 -3 9 -12 0
-17 -17 -89 -15 -115 3 -33 23 -48 83 -33 129 6 20 21 43 33 51 25 17 80 20
108 5z m295 -15 c21 -21 24 -33 24 -105 0 -79 0 -80 -25 -80 -24 0 -25 2 -25
73 0 77 -9 97 -44 97 -42 0 -50 -16 -54 -94 -4 -67 -7 -76 -23 -76 -17 0 -19
9 -19 103 l0 103 71 2 c63 1 74 -2 95 -23z m124 -47 c13 -38 27 -68 31 -68 4
0 17 30 30 66 23 66 35 79 62 72 10 -2 -2 -41 -49 -153 -56 -135 -65 -150 -89
-153 l-26 -3 17 38 c26 61 26 66 5 121 -12 29 -30 75 -41 103 l-20 50 27 -3
c24 -3 31 -12 53 -70z m331 43 c19 -20 29 -40 29 -60 l0 -31 -80 0 c-44 0 -80
-2 -80 -4 0 -39 52 -64 86 -41 24 15 64 21 64 8 0 -4 -10 -17 -22 -30 -26 -28
-101 -32 -135 -8 -28 20 -46 77 -38 117 18 79 118 107 176 49z m-15301 -96 c0
-98 -1 -105 -20 -105 -19 0 -20 7 -20 105 0 98 1 105 20 105 19 0 20 -7 20
-105z m950 95 c0 -7 6 -7 19 0 29 15 41 12 41 -10 0 -12 -10 -24 -24 -29 -30
-12 -36 -29 -36 -102 0 -52 -2 -59 -20 -59 -19 0 -20 7 -20 105 0 98 1 105 20
105 11 0 20 -5 20 -10z m254 -1 c27 -13 56 -64 56 -99 0 -57 -47 -99 -110
-100 -56 0 -85 19 -100 65 -32 96 60 176 154 134z m139 -1 c4 -10 7 -10 18 0
7 6 30 12 52 12 87 0 130 -109 71 -179 -21 -25 -33 -31 -66 -31 -21 0 -48 5
-59 10 -18 10 -19 7 -19 -50 0 -53 -2 -60 -20 -60 -19 0 -20 7 -20 155 0 146
1 155 19 155 11 0 21 -6 24 -12z m368 -17 c19 -20 29 -40 29 -60 l0 -31 -80 0
c-44 0 -80 -2 -80 -4 0 -39 52 -64 86 -41 24 15 64 21 64 8 0 -4 -10 -17 -22
-30 -26 -28 -101 -32 -135 -8 -28 20 -46 77 -38 117 18 79 118 107 176 49z
m119 19 c0 -7 6 -7 19 0 29 15 41 12 41 -10 0 -12 -10 -24 -24 -29 -30 -12
-36 -29 -36 -102 0 -52 -2 -59 -20 -59 -19 0 -20 7 -20 105 0 98 1 105 20 105
11 0 20 -5 20 -10z m-14400 -180 l0 -140 -25 0 c-14 0 -25 5 -25 12 0 9 -3 9
-12 0 -17 -17 -89 -15 -115 3 -33 23 -48 83 -33 129 6 20 21 43 33 51 25 17
80 20 108 5 17 -10 19 -7 19 35 0 41 2 45 25 45 l25 0 0 -140z m191 60 c13 -7
19 -7 19 0 0 5 11 10 25 10 l25 0 0 -105 0 -105 -25 0 c-14 0 -25 5 -25 12 0
9 -3 9 -12 0 -17 -17 -89 -15 -115 3 -33 23 -48 83 -33 129 6 20 21 43 33 51
25 17 80 20 108 5z m295 -15 c21 -21 24 -33 24 -105 0 -79 0 -80 -25 -80 -24
0 -25 2 -25 73 0 77 -9 97 -44 97 -42 0 -50 -16 -54 -94 -4 -67 -7 -76 -23
-76 -17 0 -19 9 -19 103 l0 103 71 2 c63 1 74 -2 95 -23z m5390 -307 l59 -93
3 93 c3 90 3 92 27 92 l25 0 0 -130 0 -130 -25 0 c-20 0 -36 18 -87 93 l-63
92 -3 -92 c-2 -85 -4 -93 -22 -93 -19 0 -20 7 -20 130 l0 130 24 0 c19 0 35
-18 82 -92z m1324 4 c0 -102 14 -132 60 -132 50 0 60 21 60 126 0 87 1 94 20
94 19 0 20 -7 20 -105 0 -99 -2 -107 -25 -130 -19 -20 -34 -25 -75 -25 -41 0
-56 5 -75 25 -23 23 -25 31 -25 130 0 98 1 105 20 105 18 0 20 -7 20 -88z
m660 63 c0 -20 5 -25 25 -25 18 0 25 -5 25 -20 0 -15 -7 -20 -25 -20 -24 0
-25 -2 -25 -65 0 -63 1 -65 25 -65 18 0 25 -5 25 -20 0 -16 -7 -20 -34 -20
-49 0 -66 28 -66 107 0 35 -4 63 -10 63 -5 0 -10 9 -10 20 0 11 5 20 10 20 6
0 10 11 10 25 0 20 5 25 25 25 20 0 25 -5 25 -25z m-1676 -36 c27 -13 56 -64
56 -99 0 -57 -47 -99 -110 -100 -56 0 -85 19 -100 65 -32 96 60 176 154 134z
m254 -5 c21 -14 25 -14 41 0 18 16 66 21 96 10 28 -11 45 -60 45 -134 0 -68
-1 -70 -25 -70 -24 0 -25 2 -25 73 0 80 -9 97 -52 97 -37 0 -48 -24 -48 -104
0 -64 -1 -66 -25 -66 -24 0 -25 2 -25 73 0 77 -9 97 -44 97 -42 0 -50 -16 -54
-94 -4 -67 -7 -76 -23 -76 -17 0 -19 9 -19 103 l0 104 68 1 c45 0 75 -4 90
-14z m376 5 c27 -13 56 -64 56 -99 0 -57 -47 -99 -110 -100 -56 0 -85 19 -100
65 -32 96 60 176 154 134z m136 1 c0 -7 6 -7 19 0 29 15 41 12 41 -10 0 -12
-10 -24 -24 -29 -30 -12 -36 -29 -36 -102 0 -52 -2 -59 -20 -59 -19 0 -20 7
-20 105 0 98 1 105 20 105 11 0 20 -5 20 -10z m510 0 c0 -7 6 -7 19 0 29 15
41 12 41 -10 0 -12 -10 -24 -24 -29 -30 -12 -36 -29 -36 -102 0 -52 -2 -59
-20 -59 -19 0 -20 7 -20 105 0 98 1 105 20 105 11 0 20 -5 20 -10z m140 -56
c0 -80 11 -104 48 -104 43 0 52 17 52 97 0 71 1 73 25 73 l25 0 0 -104 0 -103
-75 -1 c-105 -2 -115 9 -115 123 0 78 2 85 20 85 18 0 20 -7 20 -66z m5600 51
c0 -10 -11 -15 -35 -15 l-35 0 0 -115 0 -115 -25 0 -25 0 0 115 0 115 -35 0
c-24 0 -35 5 -35 15 0 12 17 15 95 15 78 0 95 -3 95 -15z m520 -10 c0 -20 5
-25 25 -25 18 0 25 -5 25 -20 0 -15 -7 -20 -25 -20 -24 0 -25 -2 -25 -65 0
-63 1 -65 25 -65 18 0 25 -5 25 -20 0 -16 -7 -20 -34 -20 -49 0 -66 28 -66
107 0 35 -4 63 -10 63 -5 0 -10 9 -10 20 0 11 5 20 10 20 6 0 10 11 10 25 0
20 5 25 25 25 20 0 25 -5 25 -25z m-319 -54 c19 -20 29 -40 29 -60 l0 -31 -80
0 c-44 0 -80 -2 -80 -4 0 -39 52 -64 86 -41 24 15 64 21 64 8 0 -4 -10 -17
-22 -30 -26 -28 -101 -32 -135 -8 -28 20 -46 77 -38 117 18 79 118 107 176 49z
m199 9 c26 -26 26 -50 0 -50 -11 0 -23 7 -26 15 -4 9 -19 15 -36 15 -44 0 -33
-32 17 -48 52 -17 65 -29 65 -63 0 -39 -24 -59 -73 -59 -49 0 -87 22 -87 51 0
22 34 27 47 6 13 -21 39 -27 59 -13 22 17 12 33 -29 41 -17 4 -42 13 -54 21
-31 19 -31 67 -1 88 32 23 94 20 118 -4z m-13270 -160 c0 -133 -1 -140 -20
-140 -19 0 -20 7 -20 140 0 133 1 140 20 140 19 0 20 -7 20 -140z m1310 63 l1
-78 38 43 c27 29 47 42 65 42 14 0 26 -3 26 -7 0 -4 -20 -28 -45 -53 l-45 -46
45 -44 c25 -24 45 -48 45 -52 0 -4 -12 -8 -27 -8 -20 0 -38 12 -65 43 l-37 42
-1 -42 c0 -36 -3 -43 -20 -43 -19 0 -20 7 -20 140 0 133 1 140 20 140 18 0 20
-7 20 -77z m-3293 35 c15 -14 23 -33 23 -53 0 -50 -21 -69 -81 -75 l-54 -5 -3
-52 c-3 -45 -6 -53 -23 -53 -18 0 -19 8 -19 130 l0 130 67 0 c55 0 71 -4 90
-22z m2801 6 c26 -18 30 -75 7 -94 -14 -12 -13 -15 5 -35 28 -30 26 -69 -6
-94 -21 -17 -41 -21 -95 -21 l-69 0 0 130 0 130 68 0 c45 0 75 -5 90 -16z
m-2567 -63 c19 -20 29 -40 29 -60 l0 -31 -80 0 c-44 0 -80 -2 -80 -4 0 -39 52
-64 86 -41 24 15 64 21 64 8 0 -4 -10 -17 -22 -30 -26 -28 -101 -32 -135 -8
-28 20 -46 77 -38 117 18 79 118 107 176 49z m235 4 c21 -21 24 -33 24 -105 0
-79 0 -80 -25 -80 -24 0 -25 2 -25 73 0 77 -9 97 -44 97 -42 0 -50 -16 -54
-94 -4 -67 -7 -76 -23 -76 -17 0 -19 9 -19 103 l0 103 71 2 c63 1 74 -2 95
-23z m205 15 c13 -7 19 -7 19 0 0 5 11 10 25 10 l25 0 0 -126 c0 -125 0 -126
-29 -155 -25 -24 -37 -29 -78 -29 -51 1 -73 12 -92 48 -11 20 -9 22 12 22 14
0 30 -7 37 -15 15 -18 71 -20 88 -3 7 7 12 25 12 40 0 25 -2 27 -19 18 -29
-15 -83 -12 -108 5 -33 23 -48 83 -33 129 6 20 21 43 33 51 25 17 80 20 108 5z
m169 -56 c0 -80 11 -104 48 -104 43 0 52 17 52 97 0 71 1 73 25 73 l25 0 0
-104 0 -103 -75 -1 c-105 -2 -115 9 -115 123 0 78 2 85 20 85 18 0 20 -7 20
-66z m368 50 c21 -14 25 -14 41 0 18 16 66 21 96 10 28 -11 45 -60 45 -134 0
-68 -1 -70 -25 -70 -24 0 -25 2 -25 73 0 80 -9 97 -52 97 -37 0 -48 -24 -48
-104 0 -64 -1 -66 -25 -66 -24 0 -25 2 -25 73 0 77 -9 97 -44 97 -42 0 -50
-16 -54 -94 -4 -67 -7 -76 -23 -76 -17 0 -19 9 -19 103 l0 104 68 1 c45 0 75
-4 90 -14z m275 4 c4 -10 7 -10 18 0 7 6 30 12 52 12 87 0 130 -109 71 -179
-21 -25 -33 -31 -66 -31 -21 0 -48 5 -59 10 -18 10 -19 7 -19 -50 0 -53 -2
-60 -20 -60 -19 0 -20 7 -20 155 0 146 1 155 19 155 11 0 21 -6 24 -12z m247
-54 c0 -80 11 -104 48 -104 43 0 52 17 52 97 0 71 1 73 25 73 l25 0 0 -104 0
-103 -75 -1 c-105 -2 -115 9 -115 123 0 78 2 85 20 85 18 0 20 -7 20 -66z
m441 56 c13 -7 19 -7 19 0 0 5 11 10 25 10 l25 0 0 -105 0 -105 -25 0 c-14 0
-25 5 -25 12 0 9 -3 9 -12 0 -17 -17 -89 -15 -115 3 -33 23 -48 83 -33 129 6
20 21 43 33 51 25 17 80 20 108 5z m295 -15 c21 -21 24 -33 24 -105 0 -79 0
-80 -25 -80 -24 0 -25 2 -25 73 0 77 -9 97 -44 97 -42 0 -50 -16 -54 -94 -4
-67 -7 -76 -23 -76 -17 0 -19 9 -19 103 l0 103 71 2 c63 1 74 -2 95 -23z m575
-4 c19 -20 29 -40 29 -60 l0 -31 -80 0 c-44 0 -80 -2 -80 -4 0 -39 52 -64 86
-41 24 15 64 21 64 8 0 -4 -10 -17 -22 -30 -26 -28 -101 -32 -135 -8 -28 20
-46 77 -38 117 18 79 118 107 176 49z m109 19 c0 -7 6 -7 19 0 29 15 41 12 41
-10 0 -12 -10 -24 -24 -29 -30 -12 -36 -29 -36 -102 0 -52 -2 -59 -20 -59 -19
0 -20 7 -20 105 0 98 1 105 20 105 11 0 20 -5 20 -10z m441 0 c13 -7 19 -7 19
0 0 5 11 10 25 10 l25 0 0 -105 0 -105 -25 0 c-14 0 -25 5 -25 12 0 9 -3 9
-12 0 -17 -17 -89 -15 -115 3 -33 23 -48 83 -33 129 6 20 21 43 33 51 25 17
80 20 108 5z m259 -10 c26 -26 26 -50 0 -50 -11 0 -23 7 -26 15 -4 9 -19 15
-36 15 -44 0 -33 -32 17 -48 52 -17 65 -29 65 -63 0 -39 -24 -59 -73 -59 -49
0 -87 22 -87 51 0 22 34 27 47 6 13 -21 39 -27 59 -13 22 17 12 33 -29 41 -17
4 -42 13 -54 21 -31 19 -31 67 -1 88 32 23 94 20 118 -4z m6498 -3022 l3 -138
84 0 85 0 0 -190 0 -190 -260 0 -260 0 0 -800 0 -800 -240 0 -240 0 0 135 0
135 -90 0 -90 0 0 665 0 665 -170 0 -170 0 0 135 0 135 -90 0 -90 0 0 195 0
195 763 -2 762 -3 3 -137z m722 2 l0 -140 85 0 85 0 0 -990 0 -990 -235 0
-235 0 0 135 0 135 -95 0 -95 0 0 995 0 995 245 0 245 0 0 -140z m970 0 c54
-132 56 -135 89 -140 l34 -5 200 -497 c111 -274 204 -498 207 -498 3 0 119
288 259 640 l255 640 283 0 283 0 0 -140 0 -140 90 0 90 0 0 -990 0 -990 -240
0 -240 0 0 135 0 135 -90 0 -90 0 -2 218 -3 217 -130 -352 -130 -353 -191 0
-192 0 -48 134 -49 135 -45 3 -45 3 -130 350 -130 350 -3 -487 -2 -488 -235 0
-235 0 0 135 0 135 -95 0 -95 0 0 995 0 995 287 -2 288 -3 55 -135z m3168 -2
l3 -138 84 0 85 0 0 -190 0 -190 -365 0 -365 0 0 -65 0 -65 235 0 235 0 0
-140 0 -140 90 0 90 0 0 -180 0 -180 -325 0 -325 0 0 -85 0 -85 280 0 280 0 0
-140 0 -140 85 0 85 0 0 -190 0 -190 -600 0 -600 0 0 135 0 135 -95 0 -95 0 0
995 0 995 608 -2 607 -3 3 -137z m792 2 l0 -140 85 0 85 0 0 -665 0 -665 228
-2 227 -3 3 -137 3 -138 84 0 85 0 0 -185 0 -185 -550 0 -550 0 0 135 0 135
-95 0 -95 0 0 995 0 995 245 0 245 0 0 -140z m1350 0 l0 -140 80 0 80 0 0
-990 0 -990 -235 0 -235 0 0 135 0 135 -90 0 -90 0 0 995 0 995 245 0 245 0 0
-140z m1225 -472 l400 -612 3 612 2 612 240 0 240 0 0 -140 0 -140 85 0 85 0
0 -990 0 -990 -237 0 -238 0 -224 338 c-123 185 -305 461 -405 612 l-181 275
-3 -612 -2 -613 -235 0 -235 0 0 135 0 135 -90 0 -90 0 0 995 0 995 243 0 242
0 400 -612z m2443 470 l3 -138 84 0 85 0 0 -190 0 -190 -365 0 -365 0 0 -65 0
-65 235 0 235 0 0 -140 0 -140 90 0 90 0 0 -180 0 -180 -325 0 -325 0 0 -85 0
-85 280 0 280 0 0 -135 0 -135 85 0 85 0 0 -195 0 -195 -600 0 -600 0 0 135 0
135 -95 0 -95 0 0 995 0 995 608 -2 607 -3 3 -137z m-15822 -4668 c37 -14 116
-85 136 -123 30 -55 18 -125 -29 -179 -13 -15 -12 -18 5 -27 52 -28 68 -147
29 -215 -46 -82 -179 -119 -288 -81 -54 19 -72 36 -116 104 -55 86 -57 163 -4
220 l28 30 -25 43 c-33 54 -35 126 -5 166 36 49 90 72 170 72 39 0 84 -5 99
-10z m-396 -19 c0 -13 8 -21 23 -23 l22 -3 0 -290 0 -290 -77 -3 -78 -3 0 31
c0 20 -5 30 -15 30 -12 0 -15 31 -17 193 -3 191 -3 192 -25 195 -18 3 -23 10
-23 33 0 19 -5 29 -15 29 -12 0 -15 13 -15 60 l0 60 110 0 c102 0 110 -1 110
-19z m13785 -19 c83 -42 135 -108 135 -172 0 -41 -24 -96 -49 -111 -19 -13
-19 -14 14 -50 53 -59 58 -136 15 -207 -45 -73 -192 -99 -286 -51 -54 28 -119
114 -129 172 l-7 37 66 0 c50 0 68 -4 72 -15 4 -8 14 -15 24 -15 10 0 20 -9
23 -20 8 -29 52 -26 73 5 23 35 12 53 -33 57 -28 2 -41 9 -48 26 -5 12 -15 22
-22 22 -9 0 -13 17 -13 54 l0 53 42 6 c62 8 107 67 52 67 -19 0 -28 -7 -37
-30 -11 -30 -12 -30 -84 -30 -71 0 -73 1 -73 25 0 16 -6 25 -16 25 -14 0 -15
7 -11 37 11 65 66 120 134 133 48 10 119 2 158 -18z m6699 -22 c73 -52 89 -80
94 -154 5 -78 -22 -145 -87 -218 l-43 -48 46 0 c33 0 46 -4 46 -14 0 -8 10
-16 23 -18 20 -3 22 -9 25 -65 l3 -63 -206 0 -205 0 0 25 c0 16 -6 25 -15 25
-11 0 -15 12 -15 49 0 49 0 49 83 120 91 78 131 124 153 176 19 46 18 65 -4
65 -24 0 -49 -28 -54 -60 -3 -24 -6 -25 -73 -25 -65 0 -70 2 -73 23 -2 12 -10
22 -18 22 -31 0 -11 95 29 139 48 52 76 62 162 59 74 -3 85 -6 129 -38z
m-14394 16 c0 -8 10 -16 23 -18 l22 -3 0 -290 0 -290 -77 -3 c-78 -3 -78 -3
-78 23 0 15 -6 25 -15 25 -12 0 -15 31 -17 198 -3 196 -3 197 -25 200 -17 3
-23 10 -23 28 0 15 -6 24 -15 24 -12 0 -15 13 -15 60 l0 60 110 0 c89 0 110
-3 110 -14z m1270 0 c0 -9 12 -16 28 -18 l27 -3 0 -290 0 -290 -77 -3 c-78 -3
-78 -3 -78 23 0 18 -5 25 -20 25 -19 0 -20 7 -20 196 0 187 -1 196 -20 201
-13 3 -20 14 -20 29 0 17 -6 24 -20 24 -18 0 -20 7 -20 60 l0 60 110 0 c89 0
110 -3 110 -14z m500 0 c0 -8 10 -16 23 -18 19 -3 22 -10 25 -56 5 -79 -1 -82
-134 -82 -63 0 -114 -3 -114 -8 0 -4 26 -7 58 -7 52 0 65 -5 116 -40 88 -60
123 -154 97 -252 -37 -136 -217 -189 -343 -101 -37 25 -89 102 -98 144 l-8 34
68 0 c51 0 69 -4 74 -15 3 -8 13 -15 21 -15 9 0 14 -4 11 -8 -2 -4 10 -9 29
-10 37 -3 62 16 71 54 14 57 -24 71 -75 29 -26 -23 -38 -26 -93 -23 -57 3 -63
5 -66 26 -2 12 -10 22 -18 22 -12 0 -14 29 -14 170 l0 170 185 0 c154 0 185
-2 185 -14z m5530 0 c0 -9 12 -16 28 -18 l27 -3 0 -290 0 -290 -77 -3 c-78 -3
-78 -3 -78 23 0 18 -5 25 -20 25 -19 0 -20 7 -20 196 0 187 -1 196 -20 201
-13 3 -20 14 -20 29 0 17 -6 24 -20 24 -18 0 -20 7 -20 60 l0 60 110 0 c89 0
110 -3 110 -14z m6680 0 c0 -8 10 -16 23 -18 l22 -3 0 -290 0 -290 -77 -3
c-78 -3 -78 -3 -78 23 0 15 -6 25 -15 25 -12 0 -15 31 -17 198 -3 196 -3 197
-25 200 -17 3 -23 10 -23 28 0 15 -6 24 -15 24 -12 0 -15 13 -15 60 l0 60 110
0 c89 0 110 -3 110 -14z m-13486 -11 c3 -8 15 -15 26 -15 19 0 20 -6 20 -155
0 -97 4 -155 10 -155 6 0 10 -6 10 -14 0 -8 10 -16 23 -18 20 -3 22 -8 22 -68
l0 -65 -32 -3 c-32 -3 -33 -4 -33 -53 l0 -49 -75 0 c-73 0 -75 1 -75 25 0 16
-6 25 -15 25 -9 0 -15 9 -15 25 0 24 0 24 -112 27 -109 3 -113 4 -116 26 -2
12 -10 22 -18 22 -10 0 -14 14 -14 58 0 63 -12 43 197 340 l44 62 73 0 c56 0
75 -4 80 -15z m466 -230 c0 -9 9 -15 25 -15 24 0 25 -2 25 -65 l0 -65 -180 0
-180 0 0 25 c0 16 -6 25 -15 25 -12 0 -15 13 -15 55 l0 55 170 0 c144 0 170
-2 170 -15z m-6317 -492 c29 -9 61 -22 72 -30 17 -11 23 -9 48 15 25 24 35 27
95 26 111 -1 188 -30 210 -80 27 -59 11 -129 -49 -205 -33 -42 -27 -56 26 -61
37 -3 40 -5 43 -36 6 -57 -6 -62 -149 -62 -121 0 -129 1 -143 22 l-16 22 -16
-22 c-14 -21 -22 -22 -144 -22 -119 0 -131 2 -142 20 -8 12 -24 20 -40 20 -25
0 -28 3 -28 36 0 33 9 45 83 115 l82 78 -48 1 c-40 0 -50 4 -54 20 -4 14 -14
20 -32 20 -22 0 -29 -7 -40 -35 -11 -32 -16 -35 -52 -35 -33 0 -39 3 -39 21 0
16 -5 20 -27 17 -26 -3 -31 -12 -77 -140 l-49 -138 -67 0 c-58 0 -68 3 -73 19
-3 13 -15 21 -37 23 -32 3 -34 6 -63 91 l-31 89 -16 -59 c-21 -74 -36 -97 -84
-131 -30 -21 -53 -27 -107 -30 -63 -4 -73 -2 -136 33 -37 21 -78 47 -90 58
l-23 20 0 -56 0 -57 -55 0 c-44 0 -57 4 -67 20 -7 11 -23 20 -34 20 -15 0 -32
16 -55 52 l-34 53 -5 -70 -5 -70 -53 -3 c-47 -3 -54 -1 -59 17 -4 15 -13 21
-34 21 l-29 0 0 195 0 195 48 0 c26 0 52 -4 57 -9 6 -5 23 -11 40 -13 24 -2
38 -15 70 -62 l40 -58 3 71 3 71 44 0 c25 0 45 -4 45 -9 0 -6 17 -11 37 -13
33 -3 39 -7 44 -33 4 -16 7 -24 8 -17 0 7 22 26 48 42 37 24 58 30 102 30 81
0 183 -35 226 -78 19 -19 35 -33 35 -31 0 2 -9 28 -20 57 l-20 52 55 0 c30 0
55 -4 55 -9 0 -6 19 -11 42 -13 40 -3 42 -4 60 -58 10 -30 21 -62 24 -70 4 -9
17 18 33 65 l26 80 53 3 c31 2 52 -1 52 -7 0 -6 14 -11 30 -11 17 0 30 5 30
10 0 6 23 10 50 10 28 0 50 -4 50 -10 0 -13 77 -13 85 1 20 31 110 37 188 12z
m6797 -68 c32 -20 61 -41 64 -48 5 -9 8 -9 12 2 4 7 19 27 34 44 23 26 35 31
89 35 54 4 66 1 100 -22 35 -24 38 -30 40 -79 3 -72 -9 -98 -76 -168 l-56 -59
40 0 c35 0 46 6 73 37 18 20 39 52 47 72 19 44 12 114 -12 141 -10 11 -13 20
-7 20 19 0 42 -56 42 -100 0 -43 -17 -84 -58 -137 -24 -32 -24 -33 -3 -33 12
0 21 -6 21 -14 0 -8 10 -16 23 -18 17 -2 23 -10 25 -39 5 -55 -8 -60 -154 -57
-121 3 -130 4 -139 25 l-9 21 -11 -21 c-10 -21 -17 -22 -145 -22 -130 0 -135
1 -145 23 -5 12 -18 22 -27 22 -14 0 -18 8 -18 37 0 32 8 44 79 109 43 41 84
87 89 104 14 39 7 38 -13 -1 -15 -28 -19 -30 -63 -27 -40 3 -47 6 -50 26 -2
14 -10 22 -22 22 -10 0 -20 8 -22 18 -2 10 -13 -6 -27 -40 -23 -57 -24 -58
-62 -58 -35 0 -39 3 -39 25 0 15 -6 25 -14 25 -8 0 -16 9 -18 21 -2 11 -29
-54 -62 -145 l-59 -166 -68 0 c-53 0 -69 3 -69 14 0 8 -8 22 -17 32 -10 10
-48 101 -84 203 l-66 186 51 3 c31 2 52 -1 54 -8 2 -6 14 -15 26 -20 16 -6 29
-30 51 -99 16 -50 32 -91 35 -91 3 0 22 48 41 108 l34 107 54 3 c44 3 53 0 48
-11 -4 -11 3 -16 24 -19 23 -4 29 -1 29 14 0 15 8 18 50 18 38 0 50 -4 50 -15
0 -8 9 -15 19 -15 11 0 23 -5 26 -10 4 -6 15 0 27 15 26 34 51 44 112 44 38 1
60 -6 106 -34z m6630 10 c34 -23 37 -30 39 -78 3 -72 -9 -98 -76 -168 l-56
-59 40 0 c35 0 46 6 73 37 18 20 39 52 47 72 19 44 12 114 -12 141 -10 11 -13
20 -7 20 6 0 18 -12 25 -26 l14 -26 12 30 c22 54 55 75 121 80 53 4 65 1 99
-22 35 -24 38 -30 40 -79 3 -72 -9 -98 -76 -168 l-56 -59 40 0 c35 0 46 6 73
37 18 20 39 52 47 72 19 44 12 114 -12 141 -10 11 -13 20 -7 20 19 0 42 -56
42 -100 0 -43 -17 -84 -58 -137 -24 -32 -24 -33 -3 -33 12 0 21 -6 21 -14 0
-8 10 -16 23 -18 17 -2 23 -10 25 -39 5 -55 -8 -60 -154 -57 -123 3 -129 4
-139 26 -5 12 -12 22 -15 22 -3 0 -10 -10 -15 -22 -10 -22 -15 -23 -145 -23
-130 0 -135 1 -145 23 -5 12 -15 22 -22 22 -8 0 -13 14 -13 37 0 32 8 44 79
109 43 41 84 87 89 104 14 39 -3 39 -23 -1 -15 -28 -19 -30 -63 -27 -40 3 -47
6 -50 26 -2 12 -9 22 -17 22 -7 0 -15 8 -17 18 -2 10 -13 -6 -27 -40 -23 -57
-24 -58 -62 -58 -35 0 -39 3 -39 25 0 15 -6 25 -14 25 -8 0 -16 9 -18 21 -2
11 -29 -54 -62 -145 l-59 -166 -68 0 c-53 0 -69 3 -69 14 0 8 -8 22 -17 32
-10 10 -48 101 -84 203 l-66 186 51 3 c31 2 52 -1 54 -8 2 -6 14 -15 26 -20
16 -6 29 -30 51 -99 16 -50 32 -91 35 -91 3 0 22 48 41 108 l34 107 54 3 c44
3 53 0 48 -11 -4 -11 3 -16 24 -19 23 -4 29 -1 29 14 0 15 8 18 50 18 38 0 50
-4 50 -15 0 -8 9 -15 19 -15 11 0 23 -5 26 -10 4 -6 15 0 27 15 27 34 51 44
112 44 38 1 59 -5 86 -24z m6676 -10 c29 -19 56 -45 60 -57 6 -20 8 -20 24 13
29 56 54 72 120 77 55 4 64 2 113 -31 32 -22 59 -49 67 -67 20 -48 8 -120 -28
-173 -36 -52 -38 -57 -17 -57 8 0 15 -6 15 -14 0 -8 10 -16 23 -18 19 -3 22
-9 22 -48 l0 -45 -145 0 c-143 0 -145 0 -148 23 -2 12 -7 22 -12 22 -5 0 -10
-10 -12 -22 -3 -23 -5 -23 -148 -23 -143 0 -145 0 -148 23 -2 12 -10 22 -18
22 -9 0 -14 12 -14 37 0 32 8 44 79 109 43 41 84 87 89 104 14 39 -3 39 -23
-1 -15 -28 -19 -30 -63 -27 -40 3 -47 6 -50 26 -2 12 -10 22 -18 22 -8 0 -14
8 -15 18 0 9 -12 -9 -26 -40 -25 -56 -27 -58 -64 -58 -35 0 -39 3 -39 25 0 16
-6 25 -15 25 -9 0 -15 9 -16 23 0 20 -17 -22 -95 -240 l-26 -73 -69 0 c-53 0
-69 3 -69 14 0 8 -8 22 -17 32 -10 10 -48 101 -84 203 l-66 186 51 3 c31 2 52
-1 54 -8 2 -6 14 -15 26 -20 16 -6 29 -30 51 -99 16 -50 32 -91 35 -91 3 0 22
48 41 108 l34 107 54 3 c44 3 53 0 48 -11 -4 -11 3 -16 24 -19 23 -4 29 -1 29
14 0 15 8 18 50 18 36 0 50 -4 50 -14 0 -26 53 -27 80 -1 32 29 45 33 104 34
40 1 59 -5 102 -34z m-14841 -11 c34 -26 122 -150 112 -160 -2 -3 -26 29 -52
71 -26 42 -50 74 -52 71 -3 -2 19 -40 48 -83 59 -88 74 -107 63 -79 -5 13 -4
17 4 12 9 -5 12 19 12 93 l0 101 45 0 c32 0 45 -4 45 -14 0 -8 10 -16 23 -18
18 -2 23 -11 27 -51 l5 -48 20 37 c50 93 177 122 284 66 78 -42 119 -86 137
-149 25 -86 -7 -180 -78 -229 -55 -39 -156 -46 -214 -16 -44 23 -114 92 -137
137 -16 29 -16 28 -17 -63 l0 -93 -57 3 -58 3 -65 97 -65 97 -5 -97 -5 -97
-55 0 c-49 0 -55 2 -58 23 -2 12 -10 22 -18 22 -12 0 -14 33 -14 195 l0 195
46 0 c33 0 54 -7 79 -26z m6650 0 c34 -26 122 -150 112 -160 -2 -3 -26 29 -52
71 -26 42 -50 74 -52 71 -3 -2 19 -40 48 -83 59 -88 74 -107 63 -79 -5 13 -4
17 4 12 9 -5 12 19 12 93 l0 101 45 0 c32 0 45 -4 45 -14 0 -8 10 -16 23 -18
18 -2 23 -11 27 -51 l5 -48 20 37 c50 93 177 122 284 66 78 -42 119 -86 137
-149 25 -86 -7 -180 -78 -229 -55 -39 -156 -46 -214 -16 -44 23 -114 92 -137
137 -16 29 -16 28 -17 -63 l0 -93 -57 3 -58 3 -65 97 -65 97 -5 -97 -5 -97
-55 0 c-49 0 -55 2 -58 23 -2 12 -10 22 -18 22 -12 0 -14 33 -14 195 l0 195
46 0 c33 0 54 -7 79 -26z m6660 0 c34 -26 122 -150 112 -160 -2 -3 -26 29 -52
71 -26 42 -50 74 -52 71 -3 -2 19 -40 48 -83 59 -88 74 -107 63 -79 -5 13 -4
17 4 12 9 -5 12 19 12 93 l0 101 45 0 c32 0 45 -4 45 -14 0 -8 10 -16 23 -18
19 -3 22 -10 25 -52 l3 -50 25 42 c14 24 44 53 70 68 39 23 53 26 112 22 59
-3 74 -8 123 -43 90 -62 125 -132 113 -222 -15 -103 -100 -174 -208 -174 -89
0 -165 54 -219 156 -16 29 -16 28 -17 -63 l0 -93 -57 3 -57 3 -68 99 -67 98
-3 -98 -3 -99 -55 0 c-49 0 -55 2 -58 23 -2 12 -10 22 -18 22 -12 0 -14 33
-14 195 l0 195 46 0 c33 0 54 -7 79 -26z m-8976 -136 c-13 -18 -95 -130 -183
-248 -87 -118 -161 -223 -164 -232 -2 -10 3 -30 13 -44 13 -20 19 -23 30 -14
7 6 89 118 181 248 92 130 172 240 178 244 6 4 29 8 51 8 33 0 45 6 70 35 l30
36 262 -3 263 -3 -185 -249 c-109 -146 -185 -258 -185 -271 0 -13 76 -125 185
-271 l185 -249 -64 -5 c-73 -6 -85 -13 -68 -40 7 -11 17 -29 24 -39 9 -15 9
-23 -1 -35 -12 -14 -50 -16 -287 -16 l-274 0 -51 65 c-50 64 -52 65 -88 59
-20 -4 -37 -7 -38 -8 -1 -1 9 -19 24 -41 47 -69 45 -70 -267 -73 -194 -2 -277
1 -286 9 -21 17 -376 519 -381 538 -4 14 314 477 370 539 14 15 32 22 58 22
30 0 41 6 63 35 l27 35 265 0 265 0 -22 -32z m6779 -45 c-18 -27 -99 -137
-180 -246 -141 -190 -156 -215 -142 -251 8 -20 16 -10 204 257 l153 217 56 0
c52 0 58 3 86 35 l30 36 262 -3 263 -3 -185 -250 c-102 -137 -185 -259 -185
-270 0 -11 83 -133 185 -270 l185 -250 -75 -5 c-41 -3 -78 -9 -82 -13 -4 -5
-2 -17 5 -27 7 -11 17 -29 24 -39 9 -15 9 -23 -1 -35 -12 -14 -50 -16 -287
-16 l-274 0 -51 65 -51 65 -41 -6 c-23 -4 -43 -8 -44 -8 -1 -1 9 -19 24 -41
47 -69 45 -70 -267 -73 -194 -2 -277 1 -286 9 -21 17 -376 519 -381 538 -4 14
314 477 370 539 17 18 31 22 78 22 53 0 58 2 83 35 l27 35 265 0 265 0 -33
-47z m-13339 -10 c-18 -27 -100 -137 -181 -246 -141 -189 -156 -215 -142 -251
8 -20 16 -10 204 257 l154 217 55 0 c52 0 58 3 86 35 l30 36 262 -3 263 -3
-185 -249 c-103 -139 -185 -259 -185 -271 0 -11 82 -132 185 -270 l185 -250
-80 -6 c-45 -4 -83 -8 -85 -11 -2 -2 7 -21 22 -43 47 -69 45 -70 -270 -73
l-276 -2 -52 65 c-51 65 -58 69 -112 56 l-27 -6 26 -39 c48 -70 46 -71 -266
-74 -194 -2 -277 1 -286 9 -21 17 -376 519 -381 538 -3 14 320 483 373 542 13
14 31 19 74 19 54 0 59 2 84 35 l27 35 265 0 265 0 -32 -47z m-1611 -540 c-3
-16 -20 -19 -138 -23 -217 -8 -3983 -4 -4007 4 -13 4 -23 14 -23 22 0 12 282
14 2086 14 1981 0 2085 -1 2082 -17z m6820 0 c-2 -11 -16 -20 -38 -23 -54 -8
-4082 -5 -4107 4 -13 4 -23 14 -23 22 0 12 282 14 2086 14 1974 0 2085 -1
2082 -17z m6620 0 c-3 -16 -20 -19 -138 -23 -217 -8 -3983 -4 -4007 4 -13 4
-23 14 -23 22 0 12 282 14 2086 14 1981 0 2085 -1 2082 -17z m6692 -12 c0 -10
-7 -22 -16 -25 -21 -8 -4081 -5 -4119 3 -17 3 -31 14 -33 24 -3 16 105 17
2082 17 2040 0 2086 0 2086 -19z m-23243 -443 c15 -14 23 -33 23 -53 0 -50
-21 -69 -81 -75 l-54 -5 -3 -52 c-3 -45 -6 -53 -23 -53 -18 0 -19 8 -19 130
l0 130 67 0 c55 0 71 -4 90 -22z m21213 -23 c0 -42 11 -58 25 -35 3 6 24 10
46 10 89 0 133 -108 73 -179 -21 -25 -33 -31 -66 -31 -21 0 -48 5 -59 10 -13
7 -19 7 -19 0 0 -5 -9 -10 -20 -10 -19 0 -20 7 -20 140 0 133 1 140 20 140 17
0 20 -7 20 -45z m-13493 9 c3 -8 -2 -23 -11 -32 -15 -15 -17 -15 -32 0 -21 21
-11 48 16 48 11 0 23 -7 27 -16z m200 0 c3 -8 -2 -23 -11 -32 -15 -15 -17 -15
-32 0 -21 21 -11 48 16 48 11 0 23 -7 27 -16z m5463 -79 c23 -52 46 -93 50
-90 3 2 24 45 45 95 36 83 41 90 67 90 l28 0 0 -130 0 -130 -25 0 c-23 0 -24
2 -27 82 l-3 83 -35 -82 c-46 -108 -57 -108 -109 0 l-39 82 -1 -82 c-1 -76 -3
-83 -21 -83 -19 0 -20 7 -20 130 0 130 0 130 24 130 20 0 29 -14 66 -95z
m1220 80 c0 -10 -11 -15 -35 -15 l-35 0 0 -115 0 -115 -25 0 -25 0 0 115 0
115 -35 0 c-24 0 -35 5 -35 15 0 12 17 15 95 15 78 0 95 -3 95 -15z m6230 0
c44 -23 60 -53 60 -113 0 -94 -45 -132 -155 -132 l-65 0 0 130 0 130 65 0 c39
0 78 -6 95 -15z m900 -10 c0 -20 5 -25 25 -25 18 0 25 -5 25 -20 0 -15 -7 -20
-25 -20 -24 0 -25 -2 -25 -65 0 -63 1 -65 25 -65 18 0 25 -5 25 -20 0 -16 -7
-20 -34 -20 -49 0 -66 28 -66 107 0 35 -4 63 -10 63 -5 0 -10 9 -10 20 0 11 5
20 10 20 6 0 10 11 10 25 0 20 5 25 25 25 20 0 25 -5 25 -25z m-13920 -125 c0
-133 -1 -140 -20 -140 -19 0 -20 7 -20 140 0 133 1 140 20 140 19 0 20 -7 20
-140z m200 100 l0 -39 49 6 c44 5 52 3 75 -20 24 -24 26 -33 26 -107 0 -79 0
-80 -25 -80 -24 0 -25 2 -25 73 0 77 -9 97 -44 97 -42 0 -50 -16 -54 -94 -4
-67 -7 -76 -23 -76 -18 0 -19 9 -19 140 0 133 1 140 20 140 17 0 20 -7 20 -40z
m-7789 -9 c19 -20 29 -40 29 -60 l0 -31 -80 0 c-44 0 -80 -2 -80 -4 0 -39 52
-64 86 -41 24 15 64 21 64 8 0 -4 -10 -17 -22 -30 -26 -28 -101 -32 -135 -8
-28 20 -46 77 -38 117 18 79 118 107 176 49z m235 4 c21 -21 24 -33 24 -105 0
-79 0 -80 -25 -80 -24 0 -25 2 -25 73 0 77 -9 97 -44 97 -42 0 -50 -16 -54
-94 -4 -67 -7 -76 -23 -76 -17 0 -19 9 -19 103 l0 103 71 2 c63 1 74 -2 95
-23z m215 15 c13 -7 19 -7 19 0 0 5 11 10 25 10 l25 0 0 -126 c0 -125 0 -126
-29 -155 -25 -24 -37 -29 -78 -29 -51 1 -73 12 -92 48 -11 20 -9 22 12 22 14
0 30 -7 37 -15 15 -18 71 -20 88 -3 7 7 12 25 12 40 0 25 -2 27 -19 18 -29
-15 -83 -12 -108 5 -33 23 -48 83 -33 129 6 20 21 43 33 51 25 17 80 20 108 5z
m159 -56 c0 -80 11 -104 48 -104 43 0 52 17 52 97 0 71 1 73 25 73 l25 0 0
-104 0 -103 -75 -1 c-105 -2 -115 9 -115 123 0 78 2 85 20 85 18 0 20 -7 20
-66z m368 50 c21 -14 25 -14 41 0 18 16 66 21 96 10 28 -11 45 -60 45 -134 0
-68 -1 -70 -25 -70 -24 0 -25 2 -25 73 0 80 -9 97 -52 97 -37 0 -48 -24 -48
-104 0 -64 -1 -66 -25 -66 -24 0 -25 2 -25 73 0 77 -9 97 -44 97 -42 0 -50
-16 -54 -94 -4 -67 -7 -76 -23 -76 -17 0 -19 9 -19 103 l0 104 68 1 c45 0 75
-4 90 -14z m272 -50 c0 -80 11 -104 48 -104 43 0 52 17 52 97 0 71 1 73 25 73
l25 0 0 -104 0 -103 -75 -1 c-105 -2 -115 9 -115 123 0 78 2 85 20 85 18 0 20
-7 20 -66z m368 50 c21 -14 25 -14 41 0 18 16 66 21 96 10 28 -11 45 -60 45
-134 0 -68 -1 -70 -25 -70 -24 0 -25 2 -25 73 0 80 -9 97 -52 97 -37 0 -48
-24 -48 -104 0 -64 -1 -66 -25 -66 -24 0 -25 2 -25 73 0 77 -9 97 -44 97 -42
0 -50 -16 -54 -94 -4 -67 -7 -76 -23 -76 -17 0 -19 9 -19 103 l0 104 68 1 c45
0 75 -4 90 -14z m363 6 c13 -7 19 -7 19 0 0 5 11 10 25 10 l25 0 0 -105 0
-105 -25 0 c-14 0 -25 5 -25 12 0 9 -3 9 -12 0 -17 -17 -89 -15 -115 3 -33 23
-48 83 -33 129 6 20 21 43 33 51 25 17 80 20 108 5z m295 -15 c21 -21 24 -33
24 -105 0 -79 0 -80 -25 -80 -24 0 -25 2 -25 73 0 77 -9 97 -44 97 -42 0 -50
-16 -54 -94 -4 -67 -7 -76 -23 -76 -17 0 -19 9 -19 103 l0 103 71 2 c63 1 74
-2 95 -23z m4481 3 c15 -14 23 -33 23 -53 0 -50 -21 -69 -81 -75 l-54 -5 -3
-52 c-3 -45 -6 -53 -23 -53 -18 0 -19 8 -19 130 l0 130 67 0 c55 0 71 -4 90
-22z m6774 -8 c13 -7 19 -7 19 0 0 5 11 10 25 10 l25 0 0 -105 0 -105 -25 0
c-14 0 -25 5 -25 12 0 9 -3 9 -12 0 -17 -17 -89 -15 -115 3 -33 23 -48 83 -33
129 6 20 21 43 33 51 25 17 80 20 108 5z m259 -10 c26 -26 26 -50 0 -50 -11 0
-23 7 -26 15 -4 9 -19 15 -36 15 -44 0 -33 -32 17 -48 52 -17 65 -29 65 -63 0
-39 -24 -59 -73 -59 -49 0 -87 22 -87 51 0 22 34 27 47 6 13 -21 39 -27 59
-13 22 17 12 33 -29 41 -17 4 -42 13 -54 21 -31 19 -31 67 -1 88 32 23 94 20
118 -4z m201 10 c13 -7 19 -7 19 0 0 5 11 10 25 10 l25 0 0 -105 0 -105 -25 0
c-14 0 -25 5 -25 12 0 9 -3 9 -12 0 -17 -17 -89 -15 -115 3 -33 23 -48 83 -33
129 6 20 21 43 33 51 25 17 80 20 108 5z m600 -19 c19 -20 29 -40 29 -60 l0
-31 -80 0 c-44 0 -80 -2 -80 -4 0 -39 52 -64 86 -41 24 15 64 21 64 8 0 -4
-10 -17 -22 -30 -26 -28 -101 -32 -135 -8 -28 20 -46 77 -38 117 18 79 118
107 176 49z m235 4 c21 -21 24 -33 24 -105 0 -79 0 -80 -25 -80 -24 0 -25 2
-25 73 0 77 -9 97 -44 97 -42 0 -50 -16 -54 -94 -4 -67 -7 -76 -23 -76 -17 0
-19 9 -19 103 l0 103 71 2 c63 1 74 -2 95 -23z m205 15 c13 -7 19 -7 19 0 0 5
11 10 25 10 l25 0 0 -105 0 -105 -25 0 c-14 0 -25 5 -25 12 0 9 -3 9 -12 0
-17 -17 -89 -15 -115 3 -33 23 -48 83 -33 129 6 20 21 43 33 51 25 17 80 20
108 5z m295 -15 c21 -21 24 -33 24 -105 0 -79 0 -80 -25 -80 -24 0 -25 2 -25
73 0 77 -9 97 -44 97 -42 0 -50 -16 -54 -94 -4 -67 -7 -76 -23 -76 -17 0 -19
9 -19 103 l0 103 71 2 c63 1 74 -2 95 -23z m205 15 c13 -7 19 -7 19 0 0 5 11
10 25 10 l25 0 0 -126 c0 -125 0 -126 -29 -155 -25 -24 -37 -29 -78 -29 -51 1
-73 12 -92 48 -11 20 -9 22 12 22 14 0 30 -7 37 -15 15 -18 71 -20 88 -3 7 7
12 25 12 40 0 25 -2 27 -19 18 -29 -15 -83 -12 -108 5 -33 23 -48 83 -33 129
6 20 21 43 33 51 25 17 80 20 108 5z m5340 -19 c19 -20 29 -40 29 -60 l0 -31
-80 0 c-44 0 -80 -2 -80 -4 0 -39 52 -64 86 -41 24 15 64 21 64 8 0 -4 -10
-17 -22 -30 -26 -28 -101 -32 -135 -8 -28 20 -46 77 -38 117 18 79 118 107
176 49z m460 19 c13 -7 19 -7 19 0 0 5 11 10 25 10 l25 0 0 -105 0 -105 -25 0
c-14 0 -25 5 -25 12 0 9 -3 9 -12 0 -17 -17 -89 -15 -115 3 -33 23 -48 83 -33
129 6 20 21 43 33 51 25 17 80 20 108 5z m-14350 -49 c19 -20 29 -40 29 -60
l0 -31 -80 0 c-44 0 -80 -2 -80 -4 0 -39 52 -64 86 -41 24 15 64 21 64 8 0 -4
-10 -17 -22 -30 -26 -28 -101 -32 -135 -8 -28 20 -46 77 -38 117 18 79 118
107 176 49z m227 13 c21 -14 25 -14 41 0 18 16 66 21 96 10 28 -11 45 -60 45
-134 0 -68 -1 -70 -25 -70 -24 0 -25 2 -25 73 0 80 -9 97 -52 97 -37 0 -48
-24 -48 -104 0 -64 -1 -66 -25 -66 -24 0 -25 2 -25 73 0 77 -9 97 -44 97 -42
0 -50 -16 -54 -94 -4 -67 -7 -76 -23 -76 -17 0 -19 9 -19 103 l0 104 68 1 c45
0 75 -4 90 -14z m282 -89 c0 -98 -1 -105 -20 -105 -19 0 -20 7 -20 105 0 98 1
105 20 105 19 0 20 -7 20 -105z m200 0 c0 -98 -1 -105 -20 -105 -19 0 -20 7
-20 105 0 98 1 105 20 105 19 0 20 -7 20 -105z m431 95 c13 -7 19 -7 19 0 0 5
11 10 25 10 l25 0 0 -105 0 -105 -25 0 c-14 0 -25 5 -25 12 0 9 -3 9 -12 0
-17 -17 -89 -15 -115 3 -33 23 -48 83 -33 129 6 20 21 43 33 51 25 17 80 20
108 5z m295 -15 c21 -21 24 -33 24 -105 0 -79 0 -80 -25 -80 -24 0 -25 2 -25
73 0 77 -9 97 -44 97 -42 0 -50 -16 -54 -94 -4 -67 -7 -76 -23 -76 -17 0 -19
9 -19 103 l0 103 71 2 c63 1 74 -2 95 -23z"/>
<path d="M1750 17300 c5 -10 10 -45 10 -77 0 -81 -33 -143 -119 -227 l-69 -66
48 0 c45 0 51 3 97 54 63 68 86 116 91 188 3 45 0 64 -18 97 -23 41 -61 71
-40 31z"/>
<path d="M1538 17269 c-10 -5 -20 -25 -24 -44 -6 -33 -9 -35 -45 -35 -28 0
-39 -4 -39 -15 0 -12 14 -15 63 -15 62 0 63 0 72 32 6 17 19 36 30 42 11 6 22
12 25 14 8 6 -33 32 -49 32 -9 0 -24 -5 -33 -11z"/>
<path d="M1777 16883 c-4 -3 -7 -19 -7 -35 l0 -28 -170 0 c-163 0 -170 -1
-170 -20 0 -19 7 -20 195 -20 l195 0 0 55 c0 47 -3 55 -18 55 -10 0 -22 -3
-25 -7z"/>
<path d="M3188 17240 c6 -94 -23 -152 -117 -243 l-69 -67 43 0 c39 0 47 5 92
54 64 70 86 116 90 191 3 49 0 67 -19 98 l-24 37 4 -70z"/>
<path d="M2968 17269 c-10 -5 -20 -25 -24 -44 -6 -34 -8 -35 -50 -35 -32 0
-44 -4 -44 -15 0 -12 14 -15 65 -15 56 0 65 3 65 18 0 27 29 62 51 62 25 0 25
16 0 30 -24 12 -41 12 -63 -1z"/>
<path d="M3207 16883 c-4 -3 -7 -19 -7 -35 l0 -28 -175 0 c-168 0 -175 -1
-175 -20 0 -19 7 -20 195 -20 l195 0 0 55 c0 39 -4 55 -13 55 -8 0 -17 -3 -20
-7z"/>
<path d="M3655 17305 c25 -64 17 -120 -24 -161 l-28 -28 24 -19 c24 -19 24
-19 49 4 55 52 54 148 -2 200 -24 21 -26 22 -19 4z"/>
<path d="M3420 17261 c-20 -39 -5 -101 26 -101 8 0 13 4 10 9 -12 18 14 62 44
75 23 9 27 15 18 24 -20 20 -86 15 -98 -7z"/>
<path d="M3482 17218 c-7 -7 -12 -24 -12 -39 0 -22 4 -26 20 -22 22 6 50 39
50 60 0 16 -42 17 -58 1z"/>
<path d="M3431 17048 c-33 -18 -46 -60 -29 -94 18 -38 38 -42 38 -9 0 34 41
75 77 75 24 0 26 2 13 15 -22 21 -71 28 -99 13z"/>
<path d="M3677 17007 c7 -71 0 -99 -38 -141 -43 -49 -102 -69 -189 -64 -60 3
-69 2 -54 -9 44 -32 143 -42 205 -22 51 17 99 57 115 95 27 63 13 148 -30 183
-13 11 -14 6 -9 -42z"/>
<path d="M3482 16998 c-24 -12 -38 -48 -28 -73 8 -23 44 -18 72 10 47 47 15
92 -44 63z"/>
<path d="M2230 17180 c0 -143 1 -150 20 -150 19 0 20 7 20 150 0 143 -1 150
-20 150 -19 0 -20 -7 -20 -150z"/>
<path d="M2048 17131 c-32 -49 -58 -92 -58 -95 0 -3 13 -6 29 -6 23 0 34 9 60
51 26 42 31 61 29 95 l-3 44 -57 -89z"/>
<path d="M2082 17065 l-22 -35 25 0 c22 0 25 4 25 35 0 19 -1 35 -2 35 -2 0
-13 -16 -26 -35z"/>
<path d="M2300 16951 c0 -40 -1 -41 -35 -41 l-35 0 0 -50 0 -50 -45 0 c-38 0
-45 -3 -45 -20 0 -18 7 -20 65 -20 l65 0 0 49 c0 49 1 50 33 53 32 3 32 3 32
58 0 44 -3 55 -17 58 -15 3 -18 -4 -18 -37z"/>
<path d="M1880 16890 c0 -19 7 -20 110 -20 103 0 110 1 110 20 0 19 -7 20
-110 20 -103 0 -110 -1 -110 -20z"/>
<path d="M9247 17207 c6 -50 -18 -111 -48 -128 -25 -13 -24 -26 2 -40 17 -9
25 -7 45 12 35 33 48 85 35 136 -6 22 -17 46 -25 52 -11 10 -13 4 -9 -32z"/>
<path d="M9012 17200 c-15 -26 -23 -30 -59 -30 -36 0 -43 -3 -43 -20 0 -18 7
-20 65 -20 48 0 65 4 65 13 0 19 33 47 53 47 9 0 17 4 17 8 0 17 -25 32 -52
32 -22 0 -33 -8 -46 -30z"/>
<path d="M9050 16980 c0 -17 7 -20 38 -20 l37 1 -24 19 c-30 26 -51 25 -51 0z"/>
<path d="M9257 16958 c12 -79 -22 -149 -91 -185 -38 -20 -160 -22 -195 -4 -17
10 -22 10 -16 1 28 -45 184 -66 252 -34 87 42 119 161 63 234 l-19 25 6 -37z"/>
<path d="M9015 16890 c3 -5 8 -10 11 -10 2 0 4 5 4 10 0 6 -5 10 -11 10 -5 0
-7 -4 -4 -10z"/>
<path d="M9540 17025 l0 -265 -50 0 c-43 0 -50 -3 -50 -20 0 -18 7 -20 70 -20
l70 0 0 285 c0 278 0 285 -20 285 -19 0 -20 -7 -20 -265z"/>
<path d="M9360 17191 c0 -15 6 -21 21 -21 14 0 19 5 17 17 -5 26 -38 29 -38 4z"/>
<path d="M16495 17223 c4 -10 10 -28 12 -40 5 -21 2 -23 -45 -23 -45 0 -50 -2
-45 -20 5 -17 14 -20 69 -20 l64 0 -6 28 c-7 28 -42 92 -51 92 -3 0 -2 -8 2
-17z"/>
<path d="M16277 17198 c-20 -16 -37 -60 -37 -99 0 -27 2 -28 20 -17 12 7 23
23 26 35 8 30 38 55 68 57 31 1 30 0 10 20 -19 19 -64 21 -87 4z"/>
<path d="M16517 17003 c13 -45 7 -136 -10 -168 -19 -38 -54 -71 -90 -84 -36
-14 -137 -14 -172 -1 -42 16 -19 -9 29 -31 87 -40 209 -15 257 52 35 49 40
159 10 217 -25 48 -35 54 -24 15z"/>
<path d="M16303 17002 c-50 -7 -69 -80 -33 -123 l19 -24 1 37 c0 42 36 78 78
78 20 0 22 3 13 14 -13 16 -45 23 -78 18z"/>
<path d="M16342 16952 c-46 -7 -59 -94 -15 -100 29 -4 73 39 73 71 0 26 -18
35 -58 29z"/>
<path d="M28919 17223 c24 -47 11 -111 -33 -154 l-26 -26 25 -13 c22 -12 27
-11 45 5 49 44 48 147 -1 191 -22 19 -22 19 -10 -3z"/>
<path d="M28680 17191 c-17 -33 -6 -101 18 -101 4 0 8 12 9 27 1 31 35 63 65
63 17 0 18 3 8 15 -19 23 -87 20 -100 -4z"/>
<path d="M28732 17148 c-7 -7 -12 -25 -12 -41 0 -25 3 -28 23 -22 26 8 57 41
57 61 0 17 -51 19 -68 2z"/>
<path d="M28692 16980 c-41 -17 -51 -92 -16 -121 11 -9 14 -7 14 15 0 38 41
76 82 76 28 0 31 2 18 15 -20 19 -69 27 -98 15z"/>
<path d="M28938 16931 c2 -28 2 -61 -2 -75 -9 -37 -56 -87 -101 -107 -49 -23
-152 -25 -200 -5 -48 20 -44 12 10 -20 112 -65 279 -28 321 72 20 48 17 113
-6 152 -11 17 -21 32 -23 32 -2 0 -2 -22 1 -49z"/>
<path d="M28732 16928 c-24 -12 -38 -48 -28 -73 16 -42 111 10 104 58 -4 26
-39 33 -76 15z"/>
<path d="M15560 17005 l0 -265 -50 0 c-43 0 -50 -3 -50 -20 0 -18 7 -20 70
-20 l70 0 0 285 c0 278 0 285 -20 285 -19 0 -20 -7 -20 -265z"/>
<path d="M15380 17171 c0 -15 6 -21 21 -21 14 0 19 5 17 17 -5 26 -38 29 -38
4z"/>
<path d="M22780 17240 c0 -16 -44 -135 -97 -265 l-98 -235 -41 0 c-38 0 -54
-11 -54 -36 0 -3 30 -4 67 -2 l67 3 98 235 c76 183 97 246 98 283 0 40 -3 47
-20 47 -15 0 -20 -7 -20 -30z"/>
<path d="M22440 17175 c0 -12 17 -15 94 -15 74 0 95 3 100 15 4 13 -10 15 -94
15 -82 0 -100 -3 -100 -15z"/>
<path d="M29680 17005 l0 -265 -50 0 c-43 0 -50 -3 -50 -20 0 -18 7 -20 70
-20 l70 0 0 285 c0 278 0 285 -20 285 -19 0 -20 -7 -20 -265z"/>
<path d="M29500 17171 c0 -15 6 -21 21 -21 14 0 19 5 17 17 -5 26 -38 29 -38
4z"/>
<path d="M29970 17005 l0 -265 -50 0 c-43 0 -50 -3 -50 -20 0 -18 7 -20 70
-20 l70 0 0 285 c0 278 0 285 -20 285 -19 0 -20 -7 -20 -265z"/>
<path d="M29790 17171 c0 -15 6 -21 21 -21 14 0 19 5 17 17 -5 26 -38 29 -38
4z"/>
<path d="M2710 17065 l0 -35 -150 0 c-143 0 -150 -1 -150 -20 0 -19 7 -20 170
-20 l170 0 0 55 c0 48 -2 55 -20 55 -16 0 -20 -7 -20 -35z"/>
<path d="M15990 16995 l0 -35 -145 0 c-138 0 -145 -1 -145 -20 0 -19 7 -20
170 -20 l170 0 0 55 c0 52 -1 55 -25 55 -22 0 -25 -4 -25 -35z"/>
<path d="M29360 16995 l0 -35 -145 0 c-138 0 -145 -1 -145 -20 0 -19 7 -20
170 -20 l170 0 0 55 c0 52 -1 55 -25 55 -22 0 -25 -4 -25 -35z"/>
<path d="M2870 16525 c-9 -43 -15 -55 -30 -55 -11 0 -24 -9 -30 -20 -10 -19
-8 -20 38 -20 l49 0 11 64 c16 83 15 86 -7 86 -16 0 -22 -11 -31 -55z"/>
<path d="M3044 16552 c-6 -4 -14 -17 -18 -29 -5 -16 -15 -23 -32 -23 -17 0
-24 -5 -24 -20 0 -17 7 -20 45 -20 33 0 45 4 45 15 0 8 9 24 21 36 11 11 18
27 15 35 -6 15 -34 18 -52 6z"/>
<path d="M3354 16552 c-6 -4 -14 -17 -18 -29 -5 -16 -15 -23 -32 -23 -17 0
-24 -5 -24 -20 0 -17 7 -20 45 -20 33 0 45 4 45 15 0 8 9 24 21 36 11 11 18
27 15 35 -6 15 -34 18 -52 6z"/>
<path d="M3394 16499 c-6 -8 -14 -22 -17 -32 -6 -15 -16 -18 -54 -15 -41 3
-48 6 -51 26 -5 30 -22 28 -22 -3 0 -35 -24 -90 -56 -128 -27 -32 -27 -32 -6
-35 12 -2 22 -10 22 -18 0 -8 7 -14 15 -14 8 0 15 6 15 13 0 7 27 36 60 65 73
64 113 115 108 138 -2 14 -5 15 -14 3z"/>
<path d="M3210 16250 c0 -19 -7 -20 -120 -20 -100 0 -120 -2 -120 -15 0 -13
22 -15 141 -15 l141 0 -6 23 c-3 12 -6 28 -6 35 0 6 -7 12 -15 12 -8 0 -15 -9
-15 -20z"/>
<path d="M3520 16250 c0 -19 -7 -20 -120 -20 -100 0 -120 -2 -120 -15 0 -13
22 -15 140 -15 l140 0 0 35 c0 28 -4 35 -20 35 -13 0 -20 -7 -20 -20z"/>
<path d="M2040 16518 l0 -63 20 25 c25 32 24 93 -2 98 -16 3 -18 -5 -18 -60z"/>
<path d="M2603 16560 c-4 -17 -14 -20 -54 -20 l-49 0 0 -155 c0 -148 -1 -155
-20 -155 -13 0 -20 -7 -20 -20 0 -17 7 -20 45 -20 l45 0 0 155 0 155 50 0 50
0 0 40 c0 34 -3 40 -21 40 -12 0 -23 -8 -26 -20z"/>
<path d="M1660 16527 c-19 -7 -40 -23 -48 -37 -18 -34 -10 -126 12 -148 16
-16 17 -15 11 23 -11 77 44 141 113 131 40 -6 33 10 -14 30 -18 8 -35 14 -36
13 -2 0 -19 -5 -38 -12z"/>
<path d="M2352 16523 c2 -10 13 -19 26 -21 17 -3 22 2 22 17 0 16 -6 21 -26
21 -19 0 -25 -5 -22 -17z"/>
<path d="M1881 16502 c6 -18 9 -62 7 -97 -3 -53 -9 -71 -34 -101 -17 -21 -46
-46 -67 -57 -41 -21 -133 -25 -167 -7 -38 20 -33 3 6 -21 88 -54 217 -29 271
53 46 68 42 175 -7 238 l-20 25 11 -33z"/>
<path d="M1710 16483 c-42 -16 -60 -46 -60 -99 0 -43 4 -55 20 -64 29 -15 86
4 107 36 18 28 23 98 8 113 -13 13 -57 21 -75 14z"/>
<path d="M2040 16313 c0 -82 0 -83 -25 -83 -18 0 -25 -5 -25 -20 0 -17 7 -20
45 -20 l45 0 0 78 c0 61 -4 82 -20 102 l-20 25 0 -82z"/>
<path d="M2273 16243 c6 -9 -4 -13 -41 -15 -47 -3 -50 -4 -37 -21 10 -14 24
-17 68 -15 l56 3 -27 30 c-15 17 -23 25 -19 18z"/>
<path d="M9530 16475 c-7 -35 -17 -55 -25 -55 -8 0 -19 -9 -25 -20 -10 -19 -8
-20 38 -20 l49 0 11 64 c16 85 16 86 -12 86 -22 0 -26 -7 -36 -55z"/>
<path d="M9714 16502 c-6 -4 -14 -17 -18 -29 -5 -16 -15 -23 -32 -23 -17 0
-24 -5 -24 -20 0 -17 7 -20 45 -20 33 0 45 4 45 15 0 8 9 24 21 36 11 11 18
27 15 35 -6 15 -34 18 -52 6z"/>
<path d="M10024 16502 c-6 -4 -14 -17 -18 -29 -5 -16 -15 -23 -32 -23 -17 0
-24 -5 -24 -20 0 -17 7 -20 45 -20 33 0 45 4 45 15 0 8 9 24 21 36 11 11 18
27 15 35 -6 15 -34 18 -52 6z"/>
<path d="M10064 16449 c-6 -8 -14 -22 -17 -32 -6 -15 -16 -18 -54 -15 -41 3
-48 6 -51 26 -5 30 -22 28 -22 -3 0 -35 -24 -90 -56 -128 -27 -32 -27 -32 -6
-35 12 -2 22 -10 22 -18 0 -8 7 -14 15 -14 8 0 15 6 15 13 0 7 27 36 60 65 73
64 113 115 108 138 -2 14 -5 15 -14 3z"/>
<path d="M9880 16200 c0 -19 -7 -20 -120 -20 -100 0 -120 -2 -120 -15 0 -13
22 -15 141 -15 l141 0 -6 23 c-3 12 -6 28 -6 35 0 6 -7 12 -15 12 -8 0 -15 -9
-15 -20z"/>
<path d="M10190 16200 c0 -19 -7 -20 -120 -20 -100 0 -120 -2 -120 -15 0 -13
22 -15 140 -15 l140 0 0 35 c0 28 -4 35 -20 35 -13 0 -20 -7 -20 -20z"/>
<path d="M8710 16468 l0 -63 20 25 c25 32 24 93 -2 98 -16 3 -18 -5 -18 -60z"/>
<path d="M9273 16510 c-4 -17 -14 -20 -54 -20 l-49 0 0 -155 c0 -148 -1 -155
-20 -155 -13 0 -20 -7 -20 -20 0 -17 7 -20 45 -20 l45 0 0 155 0 155 50 0 50
0 0 40 c0 34 -3 40 -21 40 -12 0 -23 -8 -26 -20z"/>
<path d="M8330 16477 c-19 -7 -40 -23 -48 -37 -18 -34 -10 -126 12 -148 16
-16 17 -15 11 23 -11 77 44 141 113 131 40 -6 33 10 -14 30 -18 8 -35 14 -36
13 -2 0 -19 -5 -38 -12z"/>
<path d="M9022 16473 c2 -10 13 -19 26 -21 17 -3 22 2 22 17 0 16 -6 21 -26
21 -19 0 -25 -5 -22 -17z"/>
<path d="M8551 16452 c6 -18 9 -62 7 -97 -3 -53 -9 -71 -34 -101 -17 -21 -46
-46 -67 -57 -41 -21 -133 -25 -167 -7 -38 20 -33 3 6 -21 88 -54 217 -29 271
53 46 68 42 175 -7 238 l-20 25 11 -33z"/>
<path d="M8380 16433 c-42 -16 -60 -46 -60 -99 0 -43 4 -55 20 -64 29 -15 86
4 107 36 18 28 23 98 8 113 -13 13 -57 21 -75 14z"/>
<path d="M8710 16263 c0 -82 0 -83 -25 -83 -18 0 -25 -5 -25 -20 0 -17 7 -20
45 -20 l45 0 0 78 c0 61 -4 82 -20 102 l-20 25 0 -82z"/>
<path d="M8943 16193 c6 -9 -4 -13 -41 -15 -47 -3 -50 -4 -37 -21 10 -14 24
-17 68 -15 l56 3 -27 30 c-15 17 -23 25 -19 18z"/>
<path d="M15870 16450 c0 -21 61 -203 71 -214 16 -18 10 14 -22 113 -29 92
-49 133 -49 101z"/>
<path d="M16064 16293 l-59 -168 -47 -3 c-48 -3 -53 -7 -42 -36 9 -24 119 -23
129 2 23 58 125 352 125 361 0 6 -11 11 -24 11 -21 0 -28 -14 -82 -167z"/>
<path d="M16265 16413 c-10 -27 -24 -52 -32 -56 -7 -4 -13 -17 -13 -28 0 -17
6 -20 31 -17 28 3 34 10 60 71 16 38 29 71 29 73 0 2 -13 4 -29 4 -25 0 -31
-6 -46 -47z"/>
<path d="M16920 16418 c0 -66 -12 -91 -77 -159 l-56 -59 51 0 c44 0 53 4 78
33 59 70 70 165 25 210 l-21 21 0 -46z"/>
<path d="M16454 16442 c-6 -4 -14 -17 -18 -29 -4 -13 -15 -23 -26 -23 -16 0
-30 -18 -30 -41 0 -5 20 -9 44 -9 38 0 45 3 50 25 3 13 15 29 26 35 16 9 18
15 10 30 -11 20 -36 26 -56 12z"/>
<path d="M16764 16442 c-6 -4 -14 -17 -18 -29 -4 -13 -13 -23 -21 -23 -12 0
-25 -21 -25 -40 0 -5 20 -11 45 -13 l45 -4 -47 1 c-46 1 -48 2 -48 29 1 19 -4
27 -17 27 -14 0 -18 -8 -18 -35 0 -34 -21 -84 -56 -132 -15 -21 -15 -23 0 -23
9 0 16 -8 16 -20 0 -11 7 -20 15 -20 8 0 15 8 15 17 0 9 33 47 74 85 55 50 73
73 69 87 -3 11 4 28 16 40 17 17 19 25 11 41 -11 20 -36 26 -56 12z"/>
<path d="M16806 16363 c-6 -14 -5 -15 5 -6 7 7 10 15 7 18 -3 3 -9 -2 -12 -12z"/>
<path d="M16620 16135 c0 -12 -20 -15 -120 -15 -113 0 -120 -1 -120 -20 0 -19
7 -20 140 -20 148 0 147 0 134 48 -7 25 -34 31 -34 7z"/>
<path d="M16930 16135 c0 -12 -19 -15 -115 -15 -108 0 -115 -1 -115 -20 0 -19
7 -20 140 -20 l140 0 0 35 c0 31 -3 35 -25 35 -16 0 -25 -6 -25 -15z"/>
<path d="M22520 16450 c0 -21 61 -203 71 -214 16 -18 10 14 -22 113 -29 92
-49 133 -49 101z"/>
<path d="M22714 16293 l-59 -168 -47 -3 c-48 -3 -53 -7 -42 -36 9 -24 119 -23
129 2 23 58 125 352 125 361 0 6 -11 11 -24 11 -21 0 -28 -14 -82 -167z"/>
<path d="M22905 16413 c-10 -27 -22 -52 -26 -57 -5 -6 -9 -18 -9 -29 0 -14 6
-18 31 -15 28 3 34 10 60 71 16 38 29 71 29 73 0 2 -15 4 -34 4 -31 0 -35 -4
-51 -47z"/>
<path d="M23104 16442 c-6 -4 -14 -17 -18 -29 -4 -13 -15 -23 -26 -23 -16 0
-30 -18 -30 -41 0 -5 20 -9 44 -9 38 0 45 3 50 25 3 13 15 29 26 35 16 9 18
15 10 30 -11 20 -36 26 -56 12z"/>
<path d="M23414 16442 c-6 -4 -14 -17 -18 -29 -4 -13 -15 -23 -26 -23 -16 0
-30 -18 -30 -41 0 -5 20 -9 44 -9 38 0 45 3 50 25 3 13 15 29 26 35 16 9 18
15 10 30 -11 20 -36 26 -56 12z"/>
<path d="M23570 16413 c0 -61 -13 -88 -77 -154 l-56 -59 46 0 c39 0 49 5 73
33 15 17 34 48 42 67 17 42 11 115 -12 138 -15 15 -16 13 -16 -25z"/>
<path d="M23310 16355 c0 -34 -21 -84 -56 -132 -15 -21 -15 -23 0 -23 9 0 16
-8 16 -20 0 -11 7 -20 15 -20 8 0 15 7 15 17 0 9 36 49 79 90 73 67 101 106
88 120 -3 3 -13 -9 -22 -27 -15 -29 -19 -31 -63 -28 -44 3 -47 5 -47 31 1 15
-5 27 -12 27 -8 0 -13 -13 -13 -35z"/>
<path d="M23270 16135 c0 -12 -20 -15 -120 -15 -113 0 -120 -1 -120 -20 0 -19
7 -20 140 -20 148 0 147 0 134 48 -7 25 -34 31 -34 7z"/>
<path d="M23580 16135 c0 -12 -20 -15 -120 -15 -113 0 -120 -1 -120 -20 0 -19
7 -20 140 -20 l140 0 0 35 c0 28 -4 35 -20 35 -11 0 -20 -7 -20 -15z"/>
<path d="M29180 16450 c0 -21 61 -203 71 -214 16 -18 10 14 -22 113 -29 92
-49 133 -49 101z"/>
<path d="M29374 16293 l-59 -168 -47 -3 c-48 -3 -53 -7 -42 -36 9 -24 119 -23
129 2 23 58 125 352 125 361 0 6 -11 11 -24 11 -21 0 -28 -14 -82 -167z"/>
<path d="M29565 16413 c-10 -27 -22 -52 -26 -57 -5 -6 -9 -18 -9 -29 0 -14 6
-18 31 -15 28 3 34 10 60 71 16 38 29 71 29 73 0 2 -15 4 -34 4 -31 0 -35 -4
-51 -47z"/>
<path d="M29764 16442 c-6 -4 -14 -17 -18 -29 -4 -13 -15 -23 -26 -23 -16 0
-30 -18 -30 -41 0 -5 20 -9 44 -9 38 0 45 3 50 25 3 13 15 29 26 35 16 9 18
15 10 30 -11 20 -36 26 -56 12z"/>
<path d="M30074 16442 c-6 -4 -14 -17 -18 -29 -4 -13 -15 -23 -26 -23 -16 0
-30 -18 -30 -41 0 -5 20 -9 44 -9 38 0 45 3 50 25 3 13 15 29 26 35 16 9 18
15 10 30 -11 20 -36 26 -56 12z"/>
<path d="M30230 16413 c0 -61 -13 -88 -77 -154 l-56 -59 46 0 c39 0 49 5 73
33 15 17 34 48 42 67 17 42 11 115 -12 138 -15 15 -16 13 -16 -25z"/>
<path d="M29970 16355 c0 -34 -21 -84 -56 -132 -15 -21 -15 -23 0 -23 9 0 16
-8 16 -20 0 -11 7 -20 15 -20 8 0 15 7 15 17 0 9 36 49 79 90 73 67 101 106
88 120 -3 3 -13 -9 -22 -27 -15 -29 -19 -31 -63 -28 -44 3 -47 5 -47 31 1 15
-5 27 -12 27 -8 0 -13 -13 -13 -35z"/>
<path d="M29930 16135 c0 -12 -20 -15 -120 -15 -113 0 -120 -1 -120 -20 0 -19
7 -20 140 -20 148 0 147 0 134 48 -7 25 -34 31 -34 7z"/>
<path d="M30240 16135 c0 -12 -20 -15 -120 -15 -113 0 -120 -1 -120 -20 0 -19
7 -20 140 -20 l140 0 0 35 c0 28 -4 35 -20 35 -11 0 -20 -7 -20 -15z"/>
<path d="M15064 16445 c8 -22 106 -165 112 -165 4 0 -2 12 -12 28 -10 15 -35
55 -57 90 -37 59 -56 79 -43 47z"/>
<path d="M15270 16290 l0 -170 -35 0 c-38 0 -42 -6 -21 -32 9 -13 27 -18 60
-18 l46 0 0 195 0 195 -25 0 -25 0 0 -170z"/>
<path d="M15493 16419 c-57 -16 -82 -104 -48 -169 20 -39 25 -38 19 3 -6 40
22 97 56 115 14 7 40 11 58 8 37 -5 42 7 10 28 -34 21 -59 25 -95 15z"/>
<path d="M15540 16363 c-8 -3 -25 -15 -37 -26 -31 -28 -33 -111 -4 -127 28
-15 79 -1 101 27 27 34 36 91 19 108 -17 17 -58 26 -79 18z"/>
<path d="M15020 16238 c0 -111 -1 -118 -20 -118 -15 0 -20 -7 -20 -25 0 -23 4
-25 45 -25 l45 0 0 103 c0 91 -3 106 -25 142 l-24 40 -1 -117z"/>
<path d="M21920 16290 l0 -170 -40 0 c-43 0 -47 -5 -26 -32 9 -13 27 -18 60
-18 l46 0 0 195 c0 188 -1 195 -20 195 -19 0 -20 -7 -20 -170z"/>
<path d="M21670 16238 l0 -118 -25 0 c-20 0 -25 -5 -25 -25 0 -23 4 -25 45
-25 l45 0 0 113 c0 95 -3 117 -20 142 l-20 30 0 -117z"/>
<path d="M22143 16419 c-57 -16 -82 -104 -48 -169 20 -39 25 -38 19 3 -6 40
22 97 56 115 14 7 40 11 58 8 37 -5 42 7 10 28 -34 21 -59 25 -95 15z"/>
<path d="M22190 16363 c-8 -3 -25 -15 -37 -26 -31 -28 -33 -111 -4 -127 28
-15 79 -1 101 27 27 34 36 91 19 108 -17 17 -58 26 -79 18z"/>
<path d="M28580 16290 l0 -170 -40 0 c-43 0 -47 -5 -26 -32 9 -13 27 -18 60
-18 l46 0 0 195 c0 188 -1 195 -20 195 -19 0 -20 -7 -20 -170z"/>
<path d="M28330 16238 l0 -118 -25 0 c-20 0 -25 -5 -25 -25 0 -23 4 -25 45
-25 l45 0 0 113 c0 95 -3 117 -20 142 l-20 30 0 -117z"/>
<path d="M28803 16419 c-57 -16 -82 -104 -48 -169 20 -39 25 -38 19 3 -6 40
22 97 56 115 14 7 40 11 58 8 37 -5 42 7 10 28 -34 21 -59 25 -95 15z"/>
<path d="M28850 16363 c-8 -3 -25 -15 -37 -26 -31 -28 -33 -111 -4 -127 28
-15 79 -1 101 27 27 34 36 91 19 108 -17 17 -58 26 -79 18z"/>
<path d="M19046 16248 c9 -18 75 -115 146 -216 72 -100 128 -188 125 -195 -3
-6 -86 -124 -184 -262 l-178 -250 -157 -5 -157 -5 -30 -35 c-17 -19 -30 -38
-31 -42 0 -5 116 -8 259 -8 l258 0 27 40 c30 46 31 48 11 52 -10 2 34 69 141
213 86 116 160 217 165 227 9 17 6 22 -241 371 -98 139 -106 147 -137 147
l-34 0 17 -32z"/>
<path d="M19746 16248 c9 -18 75 -115 146 -216 72 -100 128 -188 125 -195 -3
-6 -86 -124 -184 -262 l-178 -250 -152 -5 -152 -5 -30 -35 c-17 -19 -30 -38
-31 -42 0 -5 116 -8 258 -8 l258 0 183 259 c101 142 184 262 184 266 0 4 -83
124 -184 266 l-183 259 -38 0 -39 0 17 -32z"/>
<path d="M25676 16248 c9 -18 75 -115 146 -216 71 -101 127 -188 125 -195 -3
-7 -86 -124 -184 -262 l-178 -250 -141 -3 -141 -3 -32 -39 c-17 -21 -31 -41
-31 -44 0 -3 116 -6 259 -6 l258 0 27 40 c14 22 26 42 26 44 0 3 -13 6 -30 8
-30 3 -29 4 141 233 112 151 169 236 165 247 -2 10 -78 121 -168 248 l-163
230 -48 0 -48 0 17 -32z"/>
<path d="M26376 16248 c9 -18 75 -115 146 -216 71 -101 127 -188 125 -195 -3
-7 -86 -124 -184 -262 l-178 -250 -137 -5 -137 -5 -30 -35 c-17 -19 -30 -38
-31 -42 0 -5 116 -8 258 -8 l258 0 182 258 c101 141 184 260 185 264 1 4 -81
124 -183 268 l-184 260 -53 0 -54 0 17 -32z"/>
<path d="M26040 15936 c0 -2 8 -10 18 -17 15 -13 16 -12 3 4 -13 16 -21 21
-21 13z"/>
<path d="M5580 16243 c12 -21 81 -120 152 -221 71 -101 127 -188 125 -195 -3
-7 -86 -124 -184 -262 l-178 -250 -145 -3 -145 -3 -32 -31 c-18 -18 -33 -36
-33 -40 0 -4 116 -8 259 -8 l258 0 26 39 c25 38 25 40 7 43 -16 2 10 43 150
232 l170 229 -16 26 c-10 14 -89 128 -178 254 l-161 227 -48 0 -49 0 22 -37z"/>
<path d="M6290 16243 c12 -21 81 -120 152 -221 71 -101 127 -188 125 -195 -3
-7 -86 -124 -184 -262 l-178 -250 -152 -5 c-151 -5 -152 -5 -182 -34 -17 -17
-31 -33 -31 -38 0 -4 116 -8 258 -8 l258 0 183 259 c101 142 183 263 183 268
-1 4 -84 124 -184 266 l-182 257 -44 0 -44 0 22 -37z"/>
<path d="M5856 16060 c141 -201 164 -231 164 -215 0 18 -41 78 -149 219 -161
211 -165 210 -15 -4z"/>
<path d="M12300 16213 c12 -21 80 -120 151 -220 71 -100 129 -186 129 -190 -1
-4 -83 -123 -183 -263 l-183 -255 -131 -5 c-129 -5 -132 -6 -162 -34 -17 -17
-31 -33 -31 -38 0 -4 117 -8 259 -8 l259 0 21 34 c27 43 27 44 -9 48 -30 3
-29 4 145 238 99 132 173 242 171 251 -2 9 -77 120 -167 247 l-164 232 -63 0
-64 0 22 -37z"/>
<path d="M13010 16213 c12 -21 81 -120 152 -221 71 -101 127 -188 125 -195 -3
-7 -86 -124 -184 -262 l-178 -250 -132 -5 c-129 -5 -132 -6 -162 -34 -17 -17
-31 -33 -31 -38 0 -4 116 -8 258 -8 l258 0 183 259 c101 142 184 262 184 266
0 4 -83 124 -184 266 l-183 259 -64 0 -64 0 22 -37z"/>
<path d="M2186 15488 c-32 -46 -7 -108 43 -108 35 0 61 28 61 67 0 58 -73 86
-104 41z"/>
<path d="M1487 15563 c-14 -13 -7 -74 8 -79 24 -10 63 4 75 26 8 15 6 24 -10
40 -19 19 -60 27 -73 13z"/>
<path d="M1716 15494 c-27 -26 -18 -34 39 -34 38 0 55 4 55 13 0 36 -65 51
-94 21z"/>
<path d="M2446 15488 c-32 -46 -7 -108 43 -108 35 0 61 28 61 67 0 58 -73 86
-104 41z"/>
<path d="M2966 15488 c-32 -46 -7 -108 43 -108 35 0 61 28 61 67 0 58 -73 86
-104 41z"/>
<path d="M3366 15488 c-32 -46 -7 -108 43 -108 35 0 61 28 61 67 0 58 -73 86
-104 41z"/>
<path d="M9646 15198 c-32 -46 -7 -108 43 -108 35 0 61 28 61 67 0 58 -73 86
-104 41z"/>
<path d="M8197 15273 c-14 -13 -7 -74 8 -79 24 -10 63 4 75 26 8 15 6 24 -10
40 -19 19 -60 27 -73 13z"/>
<path d="M22280 15253 c-49 -18 -72 -80 -50 -134 33 -78 144 -63 164 22 16 69
-52 135 -114 112z"/>
<path d="M15367 15122 c-40 -44 0 -94 58 -72 33 12 32 20 -8 58 -32 31 -34 32
-50 14z"/>
<path d="M15757 15233 c-14 -13 -7 -74 8 -79 24 -10 63 4 75 26 8 15 6 24 -10
40 -19 19 -60 27 -73 13z"/>
<path d="M8426 15204 c-27 -26 -18 -34 39 -34 38 0 55 4 55 13 0 36 -65 51
-94 21z"/>
<path d="M8906 15198 c-32 -46 -7 -108 43 -108 35 0 61 28 61 67 0 58 -73 86
-104 41z"/>
<path d="M10006 15198 c-32 -46 -7 -108 43 -108 35 0 61 28 61 67 0 58 -73 86
-104 41z"/>
<path d="M22676 15178 c-32 -46 -7 -108 43 -108 35 0 61 28 61 67 0 58 -73 86
-104 41z"/>
<path d="M28586 15178 c-32 -46 -7 -108 43 -108 35 0 61 28 61 67 0 58 -73 86
-104 41z"/>
<path d="M29255 15186 c-22 -16 -26 -76 -6 -100 7 -9 28 -16 46 -16 40 0 59
21 59 67 0 39 -23 63 -59 63 -12 0 -30 -6 -40 -14z"/>
<path d="M29486 15178 c-32 -46 -7 -108 43 -108 35 0 61 28 61 67 0 58 -73 86
-104 41z"/>
<path d="M30206 15184 c-27 -26 -18 -34 39 -34 38 0 55 4 55 13 0 36 -65 51
-94 21z"/>
<path d="M16126 15158 c-33 -46 -7 -108 44 -108 32 0 60 31 60 65 0 34 -28 65
-60 65 -18 0 -34 -8 -44 -22z"/>
<path d="M16385 15166 c-22 -16 -26 -76 -6 -100 7 -9 28 -16 46 -16 40 0 59
21 59 67 0 39 -23 63 -59 63 -12 0 -30 -6 -40 -14z"/>
<path d="M16616 15164 c-27 -26 -18 -34 39 -34 38 0 55 4 55 13 0 36 -65 51
-94 21z"/>
<path d="M2296 15038 c-32 -46 -7 -108 43 -108 35 0 61 28 61 67 0 58 -73 86
-104 41z"/>
<path d="M2556 15038 c-32 -46 -7 -108 43 -108 35 0 61 28 61 67 0 58 -73 86
-104 41z"/>
<path d="M8536 14748 c-33 -46 -7 -108 44 -108 32 0 60 31 60 65 0 34 -28 65
-60 65 -18 0 -34 -8 -44 -22z"/>
<path d="M9166 14748 c-33 -46 -7 -108 44 -108 32 0 60 31 60 65 0 34 -28 65
-60 65 -18 0 -34 -8 -44 -22z"/>
<path d="M15736 14704 c-27 -26 -18 -34 39 -34 38 0 55 4 55 13 0 36 -65 51
-94 21z"/>
<path d="M687 14663 c-14 -13 -7 -74 8 -79 24 -10 63 4 75 26 8 15 6 24 -10
40 -19 19 -60 27 -73 13z"/>
<path d="M3484 14657 c-3 -9 -4 -26 -2 -39 2 -18 10 -24 34 -26 29 -3 64 17
64 36 -1 33 -85 58 -96 29z"/>
<path d="M3487 14553 c-4 -3 -7 -22 -7 -40 l0 -34 48 3 c43 3 47 5 50 30 3 22
-2 30 -23 38 -30 12 -59 13 -68 3z"/>
<path d="M916 14594 c-27 -26 -18 -34 39 -34 38 0 55 4 55 13 0 36 -65 51 -94
21z"/>
<path d="M1386 14588 c-32 -46 -7 -108 43 -108 35 0 61 28 61 67 0 58 -73 86
-104 41z"/>
<path d="M2305 14596 c-22 -16 -26 -76 -6 -100 7 -9 28 -16 46 -16 40 0 59 21
59 67 0 39 -23 63 -59 63 -12 0 -30 -6 -40 -14z"/>
<path d="M2886 14588 c-32 -46 -7 -108 43 -108 35 0 61 28 61 67 0 58 -73 86
-104 41z"/>
<path d="M3726 14594 c-27 -26 -18 -34 39 -34 38 0 55 4 55 13 0 36 -65 51
-94 21z"/>
<path d="M4306 14588 c-32 -46 -7 -108 43 -108 35 0 61 28 61 67 0 58 -73 86
-104 41z"/>
<path d="M6098 6825 c8 -42 -7 -91 -37 -121 l-28 -28 24 -19 c23 -18 25 -18
44 -1 31 28 44 87 31 133 -14 46 -42 76 -34 36z"/>
<path d="M5850 6821 c-13 -26 -13 -57 1 -84 11 -20 12 -20 28 13 10 22 27 38
46 44 40 13 40 13 25 31 -19 23 -87 20 -100 -4z"/>
<path d="M5902 6768 c-7 -7 -12 -23 -12 -36 0 -19 4 -22 23 -17 23 7 57 40 57
56 0 13 -54 11 -68 -3z"/>
<path d="M5862 6610 c-41 -17 -51 -92 -16 -121 11 -9 14 -7 14 10 0 32 43 71
80 71 16 0 30 4 30 9 0 27 -69 47 -108 31z"/>
<path d="M6108 6555 c2 -25 1 -56 -2 -69 -9 -37 -56 -87 -101 -107 -54 -25
-159 -25 -207 -1 -53 27 -38 -2 18 -34 111 -65 279 -27 320 72 20 48 17 113
-6 152 -11 17 -21 32 -22 32 -2 0 -2 -20 0 -45z"/>
<path d="M5902 6548 c-23 -12 -39 -49 -27 -67 20 -33 111 17 103 57 -4 20 -44
26 -76 10z"/>
<path d="M5600 6630 l0 -260 -50 0 c-47 0 -50 -2 -50 -25 0 -24 2 -25 70 -25
l70 0 0 285 c0 278 0 285 -20 285 -19 0 -20 -7 -20 -260z"/>
<path d="M5420 6796 c0 -20 5 -26 21 -26 15 0 20 5 17 22 -5 34 -38 37 -38 4z"/>
<path d="M19467 6787 c6 -50 -18 -111 -48 -128 -25 -13 -24 -26 2 -40 17 -9
25 -7 45 12 35 33 48 85 35 136 -6 22 -17 46 -25 52 -11 10 -13 4 -9 -32z"/>
<path d="M19232 6780 c-15 -26 -23 -30 -59 -30 -36 0 -43 -3 -43 -20 0 -18 7
-20 65 -20 48 0 65 4 65 13 0 19 33 47 53 47 9 0 17 4 17 8 0 17 -25 32 -52
32 -22 0 -33 -8 -46 -30z"/>
<path d="M19270 6560 c0 -17 7 -20 38 -20 l37 1 -24 19 c-30 26 -51 25 -51 0z"/>
<path d="M19477 6538 c12 -79 -22 -149 -91 -185 -38 -20 -160 -22 -195 -4 -17
10 -22 10 -16 1 28 -45 184 -66 252 -34 87 42 119 161 63 234 l-19 25 6 -37z"/>
<path d="M19235 6470 c3 -5 8 -10 11 -10 2 0 4 5 4 10 0 6 -5 10 -11 10 -5 0
-7 -4 -4 -10z"/>
<path d="M26128 6763 c5 -87 -25 -148 -117 -236 l-69 -67 43 0 c38 0 47 5 89
50 85 91 116 194 82 274 -23 55 -31 48 -28 -21z"/>
<path d="M25908 6799 c-10 -5 -20 -25 -24 -44 -6 -34 -8 -35 -50 -35 -32 0
-44 -4 -44 -15 0 -12 14 -15 65 -15 62 0 65 1 65 23 0 27 28 57 53 57 23 0 21
17 -2 30 -24 12 -41 12 -63 -1z"/>
<path d="M26147 6413 c-4 -3 -7 -19 -7 -35 l0 -28 -175 0 c-168 0 -175 -1
-175 -20 0 -19 7 -20 195 -20 l195 0 0 55 c0 39 -4 55 -13 55 -8 0 -17 -3 -20
-7z"/>
<path d="M11690 6605 l0 -265 -50 0 c-43 0 -50 -3 -50 -20 0 -18 7 -20 70 -20
l70 0 0 285 c0 278 0 285 -20 285 -19 0 -20 -7 -20 -265z"/>
<path d="M11510 6771 c0 -15 6 -21 21 -21 14 0 19 5 17 17 -5 26 -38 29 -38 4z"/>
<path d="M12960 6605 l0 -265 -45 0 c-38 0 -45 -3 -45 -20 0 -18 7 -20 70 -20
l70 0 0 285 0 285 -25 0 -25 0 0 -265z"/>
<path d="M12790 6771 c0 -12 6 -21 16 -21 9 0 14 7 12 17 -5 25 -28 28 -28 4z"/>
<path d="M13458 6833 l-3 -38 -122 -3 -123 -3 0 -44 c0 -25 3 -45 8 -45 15 0
30 16 33 35 4 18 13 20 122 23 l117 3 0 54 c0 41 -4 55 -14 55 -10 0 -16 -13
-18 -37z"/>
<path d="M13475 6617 c27 -66 12 -170 -32 -219 -44 -50 -149 -72 -233 -48
l-35 9 23 -19 c34 -28 99 -43 160 -37 108 11 166 80 166 197 0 66 -17 113 -48
139 -15 12 -15 10 -1 -22z"/>
<path d="M13255 6608 c-11 -6 -24 -17 -28 -25 -5 -8 -26 -13 -53 -13 -38 0
-45 -3 -42 -17 2 -14 15 -19 60 -21 49 -3 59 0 82 23 15 15 36 25 53 25 24 0
25 2 13 14 -21 21 -62 28 -85 14z"/>
<path d="M18990 6605 l0 -265 -45 0 c-38 0 -45 -3 -45 -20 0 -18 7 -20 70 -20
l70 0 0 285 0 285 -25 0 -25 0 0 -265z"/>
<path d="M18820 6771 c0 -12 6 -21 16 -21 9 0 14 7 12 17 -5 25 -28 28 -28 4z"/>
<path d="M25670 6605 l0 -265 -50 0 c-43 0 -50 -3 -50 -20 0 -18 7 -20 70 -20
l70 0 0 285 c0 278 0 285 -20 285 -19 0 -20 -7 -20 -265z"/>
<path d="M25490 6771 c0 -15 6 -21 21 -21 14 0 19 5 17 17 -5 26 -38 29 -38 4z"/>
<path d="M12180 6710 c0 -143 1 -150 20 -150 19 0 20 7 20 150 0 143 -1 150
-20 150 -19 0 -20 -7 -20 -150z"/>
<path d="M11998 6661 c-32 -49 -58 -92 -58 -95 0 -3 13 -6 29 -6 23 0 34 9 60
51 26 42 31 61 29 95 l-3 44 -57 -89z"/>
<path d="M12032 6595 l-22 -35 25 0 c22 0 25 4 25 35 0 19 -1 35 -2 35 -2 0
-13 -16 -26 -35z"/>
<path d="M12250 6481 c0 -40 -1 -41 -35 -41 l-35 0 0 -50 0 -50 -45 0 c-38 0
-45 -3 -45 -20 0 -18 7 -20 65 -20 l65 0 0 49 c0 49 1 50 33 53 32 3 32 3 32
58 0 44 -3 55 -17 58 -15 3 -18 -4 -18 -37z"/>
<path d="M11830 6420 c0 -19 7 -20 110 -20 103 0 110 1 110 20 0 19 -7 20
-110 20 -103 0 -110 -1 -110 -20z"/>
<path d="M12650 6595 l0 -35 -150 0 c-143 0 -150 -1 -150 -20 0 -19 7 -20 170
-20 l170 0 0 55 c0 48 -2 55 -20 55 -16 0 -20 -7 -20 -35z"/>
<path d="M6354 6128 c18 -25 21 -94 6 -133 -6 -15 -36 -53 -67 -86 l-56 -59
46 0 c37 0 53 6 81 30 59 52 99 160 60 160 -13 0 -15 7 -11 35 5 32 3 38 -26
55 -42 26 -52 25 -33 -2z"/>
<path d="M6664 6128 c18 -25 21 -94 6 -133 -6 -15 -36 -53 -67 -86 l-56 -59
51 0 c43 0 57 5 86 30 89 79 101 203 24 250 -46 28 -64 27 -44 -2z"/>
<path d="M4816 6118 c4 -7 35 -53 68 -103 55 -81 61 -87 64 -62 2 19 -11 50
-43 102 -38 60 -52 75 -72 75 -17 0 -22 -4 -17 -12z"/>
<path d="M5040 5950 c0 -172 -1 -180 -20 -180 -13 0 -18 -5 -14 -15 4 -11 21
-15 56 -15 l50 0 -7 78 c-8 104 -8 207 0 265 l7 47 -36 0 -36 0 0 -180z"/>
<path d="M5620 6125 c0 -13 73 -231 80 -238 4 -4 13 13 20 38 11 40 11 54 -5
108 -26 89 -32 97 -65 97 -17 0 -30 -2 -30 -5z"/>
<path d="M5876 6088 c-9 -24 -38 -104 -64 -178 -44 -125 -49 -135 -74 -138
-19 -2 -25 -8 -21 -18 8 -22 119 -20 128 4 32 80 93 265 99 297 4 22 9 48 12
58 4 14 -1 17 -29 17 -32 0 -37 -4 -51 -42z"/>
<path d="M6037 6092 c-9 -21 -19 -55 -22 -75 -7 -36 -7 -37 24 -37 33 0 43 14
61 85 4 17 11 38 15 48 6 14 2 17 -28 17 -31 0 -36 -4 -50 -38z"/>
<path d="M5437 6098 c66 -73 67 -189 1 -264 -40 -46 -76 -63 -133 -66 -62 -2
-43 -20 29 -26 131 -11 216 66 216 195 0 69 -28 126 -79 160 -43 29 -60 29
-34 1z"/>
<path d="M6214 6092 c-6 -4 -14 -17 -18 -29 -4 -13 -12 -23 -17 -23 -5 0 -9
-7 -9 -15 0 -11 11 -15 43 -15 38 0 44 3 53 29 18 45 -14 78 -52 53z"/>
<path d="M6525 6092 c-11 -8 -35 -57 -35 -72 0 -6 20 -10 44 -10 40 0 44 2 49
27 9 48 -24 80 -58 55z"/>
<path d="M5253 6069 c-82 -24 -85 -179 -4 -207 l29 -10 -15 35 c-26 64 6 143
64 158 21 5 24 8 13 15 -29 15 -55 18 -87 9z"/>
<path d="M5330 6033 c-41 -15 -60 -46 -60 -98 0 -56 12 -75 46 -75 48 0 84 83
64 145 -11 34 -20 39 -50 28z"/>
<path d="M6450 6015 c0 -31 -22 -77 -60 -125 -23 -29 -25 -37 -14 -47 7 -7 15
-13 18 -13 2 0 44 38 93 85 l88 84 -43 1 c-35 0 -45 4 -49 20 -8 29 -33 25
-33 -5z"/>
<path d="M4790 5888 c0 -72 -4 -118 -10 -118 -5 0 -10 -7 -10 -15 0 -11 12
-15 45 -15 l45 0 0 78 c0 72 -3 82 -35 132 l-34 55 -1 -117z"/>
<path d="M6380 5795 l0 -25 -105 0 c-63 0 -105 -4 -105 -10 0 -6 53 -10 140
-10 87 0 140 4 140 10 0 6 -9 10 -20 10 -15 0 -20 7 -20 25 0 16 -6 25 -15 25
-9 0 -15 -9 -15 -25z"/>
<path d="M6690 5795 l0 -25 -100 0 c-60 0 -100 -4 -100 -10 0 -6 53 -10 140
-10 l140 0 0 35 c0 34 -1 35 -40 35 -36 0 -40 -2 -40 -25z"/>
<path d="M12414 6058 c68 -214 86 -259 86 -212 0 33 -64 217 -78 222 -6 2 -10
-2 -8 -10z"/>
<path d="M12670 6048 c-6 -13 -34 -90 -63 -173 l-52 -150 -48 -3 c-39 -3 -47
-6 -43 -18 3 -9 6 -18 6 -20 0 -2 27 -4 59 -4 l60 0 19 53 c11 28 39 107 62
175 30 87 46 119 52 110 7 -9 8 -8 4 5 -3 10 -6 25 -6 33 0 23 -39 16 -50 -8z"/>
<path d="M12810 6024 c-11 -25 -20 -50 -20 -55 0 -5 -7 -9 -15 -9 -8 0 -15 -9
-15 -21 0 -17 5 -20 31 -17 28 3 34 9 57 65 14 34 29 60 33 57 5 -3 6 2 3 10
-3 9 -17 16 -30 16 -20 0 -29 -9 -44 -46z"/>
<path d="M13148 6035 c8 -68 -6 -102 -70 -170 l-60 -65 45 0 c39 0 49 5 77 37
45 51 63 99 57 151 -4 38 -29 82 -47 82 -3 0 -4 -16 -2 -35z"/>
<path d="M12994 6042 c-6 -4 -14 -17 -18 -28 -4 -12 -16 -24 -26 -27 -11 -3
-20 -12 -20 -21 0 -12 10 -16 45 -16 33 0 45 4 45 15 0 8 8 23 19 34 31 31 -7
68 -45 43z"/>
<path d="M13314 6042 c-6 -4 -14 -17 -18 -29 -4 -12 -17 -23 -29 -25 -12 -2
-23 -11 -25 -20 -3 -15 4 -18 42 -18 34 0 46 4 46 15 0 8 9 24 21 36 11 11 18
27 15 35 -6 15 -34 18 -52 6z"/>
<path d="M13345 5969 c-15 -28 -19 -30 -63 -27 -40 3 -47 6 -50 26 -5 33 -22
27 -22 -8 0 -34 -20 -78 -58 -127 -20 -27 -21 -33 -8 -33 9 0 16 -7 16 -15 0
-8 9 -15 20 -15 11 0 20 5 20 12 0 6 36 44 79 84 43 41 84 87 89 104 14 39 -3
39 -23 -1z"/>
<path d="M13160 5740 c0 -19 -7 -20 -115 -20 -96 0 -115 -3 -115 -15 0 -13 22
-15 141 -15 l141 0 -6 23 c-3 12 -6 28 -6 35 0 6 -9 12 -20 12 -13 0 -20 -7
-20 -20z"/>
<path d="M13480 5740 c0 -19 -7 -20 -120 -20 -100 0 -120 -2 -120 -15 0 -13
22 -15 140 -15 l140 0 0 35 c0 28 -4 35 -20 35 -13 0 -20 -7 -20 -20z"/>
<path d="M19064 6058 c68 -214 86 -259 86 -212 0 33 -64 217 -78 222 -6 2 -10
-2 -8 -10z"/>
<path d="M19320 6048 c-6 -13 -34 -90 -63 -173 l-52 -150 -48 -3 c-39 -3 -47
-6 -43 -18 3 -9 6 -18 6 -20 0 -2 27 -4 59 -4 l60 0 19 53 c11 28 39 107 62
175 30 87 46 119 52 110 7 -9 8 -8 4 5 -3 10 -6 25 -6 33 0 23 -39 16 -50 -8z"/>
<path d="M19460 6024 c-11 -25 -20 -50 -20 -55 0 -5 -7 -9 -15 -9 -8 0 -15 -9
-15 -21 0 -17 5 -20 31 -17 28 3 34 9 57 65 14 34 29 60 33 57 5 -3 6 2 3 10
-3 9 -17 16 -30 16 -20 0 -29 -9 -44 -46z"/>
<path d="M19644 6042 c-6 -4 -14 -17 -18 -29 -4 -12 -17 -23 -29 -25 -12 -2
-23 -11 -25 -20 -3 -15 4 -18 42 -18 34 0 46 4 46 15 0 8 9 24 21 36 11 11 18
27 15 35 -6 15 -34 18 -52 6z"/>
<path d="M19964 6042 c-6 -4 -14 -17 -18 -29 -4 -12 -17 -23 -29 -25 -12 -2
-23 -11 -25 -20 -3 -15 4 -18 42 -18 34 0 46 4 46 15 0 8 9 24 21 36 11 11 18
27 15 35 -6 15 -34 18 -52 6z"/>
<path d="M19995 5969 c-15 -28 -19 -30 -63 -27 -40 3 -47 6 -50 26 -5 34 -32
28 -32 -8 0 -34 -20 -78 -58 -127 -24 -32 -24 -33 -3 -33 12 0 21 -6 21 -15 0
-8 9 -15 20 -15 11 0 20 5 20 12 0 6 36 44 79 84 43 41 84 87 89 104 14 39 -3
39 -23 -1z"/>
<path d="M19810 5740 c0 -19 -7 -20 -120 -20 -100 0 -120 -2 -120 -15 0 -13
22 -15 140 -15 l140 0 0 35 c0 28 -4 35 -20 35 -13 0 -20 -7 -20 -20z"/>
<path d="M20130 5740 c0 -19 -7 -20 -120 -20 -100 0 -120 -2 -120 -15 0 -13
22 -15 140 -15 l140 0 0 35 c0 28 -4 35 -20 35 -13 0 -20 -7 -20 -20z"/>
<path d="M25724 6058 c68 -214 86 -259 86 -212 0 32 -65 217 -78 222 -7 2 -10
-2 -8 -10z"/>
<path d="M25980 6048 c-6 -13 -34 -90 -63 -173 l-52 -150 -46 -3 c-41 -3 -46
-6 -42 -23 5 -16 14 -19 63 -19 54 0 59 2 68 28 49 135 122 346 122 353 0 19
-41 8 -50 -13z"/>
<path d="M26120 6024 c-11 -25 -20 -49 -20 -54 0 -4 -7 -10 -15 -14 -8 -3 -15
-13 -15 -21 0 -12 8 -15 31 -13 27 3 33 10 60 73 16 38 29 71 29 72 0 2 -11 3
-25 3 -21 0 -29 -9 -45 -46z"/>
<path d="M26458 6035 c8 -68 -6 -102 -70 -170 l-60 -65 35 0 c64 0 137 90 137
171 0 28 -31 99 -43 99 -2 0 -1 -16 1 -35z"/>
<path d="M26778 6035 c8 -68 -6 -102 -70 -170 l-60 -65 35 0 c64 0 137 90 137
171 0 28 -31 99 -43 99 -2 0 -1 -16 1 -35z"/>
<path d="M26304 6042 c-6 -4 -14 -17 -18 -29 -4 -12 -17 -23 -29 -25 -12 -2
-23 -11 -25 -20 -3 -15 4 -18 42 -18 34 0 46 4 46 15 0 8 9 24 21 36 11 11 18
27 15 35 -6 15 -34 18 -52 6z"/>
<path d="M26624 6042 c-6 -4 -14 -17 -18 -29 -4 -12 -17 -23 -29 -25 -12 -2
-23 -11 -25 -20 -3 -15 4 -18 42 -18 34 0 46 4 46 15 0 8 9 24 21 36 11 11 18
27 15 35 -6 15 -34 18 -52 6z"/>
<path d="M26655 5969 c-15 -28 -19 -30 -63 -27 -40 3 -47 6 -50 26 -6 40 -29
25 -34 -23 -4 -29 -18 -61 -42 -95 -32 -45 -34 -50 -16 -50 11 0 20 -7 20 -15
0 -8 9 -15 20 -15 11 0 20 5 20 12 0 6 36 44 79 84 43 41 84 87 89 104 14 39
-3 39 -23 -1z"/>
<path d="M26470 5740 c0 -19 -7 -20 -120 -20 -100 0 -120 -2 -120 -15 0 -13
22 -15 140 -15 l140 0 0 35 c0 28 -4 35 -20 35 -13 0 -20 -7 -20 -20z"/>
<path d="M26790 5740 c0 -19 -7 -20 -120 -20 -100 0 -120 -2 -120 -15 0 -13
22 -15 140 -15 l140 0 0 35 c0 28 -4 35 -20 35 -13 0 -20 -7 -20 -20z"/>
<path d="M11820 5895 l0 -175 -40 0 c-38 0 -39 -1 -28 -20 10 -15 24 -20 60
-20 l48 0 0 195 c0 188 -1 195 -20 195 -19 0 -20 -7 -20 -175z"/>
<path d="M12242 6015 c23 -45 31 -108 18 -154 -12 -47 -59 -105 -102 -127 -30
-15 -119 -21 -159 -9 -18 5 -16 1 10 -16 63 -42 174 -36 236 13 84 66 87 230
5 303 l-23 20 15 -30z"/>
<path d="M12033 6019 c-39 -11 -63 -52 -63 -104 0 -41 22 -90 44 -98 12 -5 13
-1 4 25 -13 36 2 96 30 121 10 9 36 20 58 25 l39 9 -37 17 c-21 9 -39 16 -40
15 -2 0 -18 -5 -35 -10z"/>
<path d="M12090 5973 c-41 -16 -60 -46 -60 -99 0 -63 14 -79 61 -67 45 12 74
54 74 108 0 24 -2 46 -5 48 -9 10 -55 16 -70 10z"/>
<path d="M11570 5838 l0 -118 -25 0 c-18 0 -25 -5 -25 -20 0 -17 7 -20 45 -20
l45 0 0 108 c0 90 -3 112 -20 137 l-20 30 0 -117z"/>
<path d="M18470 5895 l0 -175 -40 0 c-38 0 -39 -1 -28 -20 10 -15 24 -20 60
-20 l48 0 0 195 c0 188 -1 195 -20 195 -19 0 -20 -7 -20 -175z"/>
<path d="M18892 6015 c23 -45 31 -108 18 -154 -12 -47 -59 -105 -102 -127 -30
-15 -119 -21 -159 -9 -18 5 -16 1 10 -16 63 -42 174 -36 236 13 84 66 87 230
5 303 l-23 20 15 -30z"/>
<path d="M18683 6019 c-39 -11 -63 -52 -63 -104 0 -41 22 -90 44 -98 12 -5 13
-1 4 25 -13 36 2 96 30 121 10 9 36 20 58 25 l39 9 -37 17 c-21 9 -39 16 -40
15 -2 0 -18 -5 -35 -10z"/>
<path d="M18740 5973 c-41 -16 -60 -46 -60 -99 0 -63 14 -79 61 -67 45 12 74
54 74 108 0 24 -2 46 -5 48 -9 10 -55 16 -70 10z"/>
<path d="M18220 5838 l0 -118 -25 0 c-18 0 -25 -5 -25 -20 0 -17 7 -20 45 -20
l45 0 0 108 c0 90 -3 112 -20 137 l-20 30 0 -117z"/>
<path d="M25130 5895 l0 -175 -40 0 c-38 0 -39 -1 -28 -20 10 -15 24 -20 60
-20 l48 0 0 195 c0 188 -1 195 -20 195 -19 0 -20 -7 -20 -175z"/>
<path d="M25343 6019 c-57 -17 -82 -104 -48 -169 21 -40 26 -38 20 8 -11 72
44 136 112 129 17 -1 29 1 26 6 -5 8 -68 38 -75 36 -2 0 -18 -5 -35 -10z"/>
<path d="M25558 6004 c18 -34 24 -101 12 -143 -12 -47 -59 -105 -102 -127 -35
-18 -138 -20 -170 -3 -22 12 -22 11 -8 -6 50 -60 195 -59 263 3 57 51 75 168
37 242 -11 21 -25 42 -31 46 -8 4 -8 1 -1 -12z"/>
<path d="M25384 5970 c-34 -13 -54 -50 -54 -97 0 -54 21 -76 64 -67 17 3 37
11 45 18 17 13 41 68 41 94 0 42 -52 71 -96 52z"/>
<path d="M24880 5838 l0 -118 -25 0 c-18 0 -25 -5 -25 -20 0 -17 7 -20 45 -20
l45 0 0 108 c0 90 -3 112 -20 137 l-20 30 0 -117z"/>
<path d="M15121 5620 c-101 -142 -184 -261 -184 -265 0 -4 83 -124 184 -266
l183 -259 258 0 c142 0 258 3 258 6 0 3 -16 25 -36 50 l-36 44 -166 2 -166 3
-185 259 -184 259 24 43 c13 24 63 99 111 166 77 109 138 203 138 214 0 19
-40 -33 -199 -256z"/>
<path d="M15827 5629 c-98 -137 -180 -255 -183 -262 -3 -8 65 -107 150 -222
85 -115 153 -212 150 -216 -2 -4 10 -28 28 -53 l32 -46 258 0 c142 0 258 3
258 6 0 4 -16 26 -35 50 l-36 44 -162 2 -162 3 -184 259 -184 259 18 31 c11
17 64 96 120 176 56 80 112 162 124 183 21 34 21 37 4 37 -12 0 -76 -81 -196
-251z"/>
<path d="M21872 5593 c-100 -142 -183 -262 -184 -266 0 -5 82 -126 183 -268
l183 -259 258 0 c142 0 258 3 258 6 0 4 -16 26 -35 50 l-36 43 -147 3 -147 3
-178 250 c-98 138 -181 256 -184 262 -3 7 53 95 125 195 121 171 152 218 152
232 0 3 -15 6 -33 6 -31 0 -40 -10 -215 -257z"/>
<path d="M22595 5610 c-94 -132 -171 -248 -173 -257 -1 -10 66 -110 158 -233
137 -185 157 -216 140 -220 -18 -5 -18 -8 11 -52 l31 -48 259 0 c143 0 259 3
259 6 0 3 -16 25 -36 50 l-36 43 -151 3 -152 3 -178 250 c-98 138 -181 256
-184 262 -3 7 50 89 116 184 67 94 130 188 141 210 l20 39 -28 0 c-25 0 -45
-24 -197 -240z"/>
<path d="M8532 5583 c-100 -142 -183 -262 -184 -266 0 -5 82 -126 183 -268
l183 -259 258 0 c142 0 258 3 258 6 0 4 -16 26 -35 50 l-36 43 -147 3 -147 3
-178 250 c-98 138 -181 256 -184 262 -3 7 54 95 126 197 72 101 135 196 141
210 9 25 8 26 -23 26 -31 0 -40 -11 -215 -257z"/>
<path d="M9255 5600 c-93 -131 -171 -247 -173 -257 -1 -10 66 -109 158 -233
137 -184 157 -216 140 -220 -18 -5 -18 -8 11 -52 l31 -48 259 0 c143 0 259 3
259 6 0 4 -16 26 -35 50 l-36 43 -152 3 -152 3 -178 250 c-98 138 -181 256
-184 262 -3 7 53 95 124 195 71 101 134 195 141 211 11 26 10 27 -16 27 -24 0
-46 -28 -197 -240z"/>
<path d="M4537 4883 c-14 -13 -7 -74 8 -79 24 -10 63 4 75 26 8 15 6 24 -10
40 -19 19 -60 27 -73 13z"/>
<path d="M25885 4796 c-22 -16 -26 -76 -6 -100 7 -9 28 -16 46 -16 40 0 59 21
59 67 0 39 -23 63 -59 63 -12 0 -30 -6 -40 -14z"/>
<path d="M25367 4863 c-4 -3 -7 -46 -7 -95 l0 -88 41 0 c54 0 75 13 89 55 17
52 -2 103 -46 121 -36 15 -67 18 -77 7z"/>
<path d="M4756 4814 c-27 -26 -18 -34 39 -34 38 0 55 4 55 13 0 36 -65 51 -94
21z"/>
<path d="M5236 4808 c-32 -46 -7 -108 43 -108 35 0 61 28 61 67 0 58 -73 86
-104 41z"/>
<path d="M6766 4808 c-32 -46 -7 -108 43 -108 35 0 61 28 61 67 0 58 -73 86
-104 41z"/>
<path d="M11517 4833 c-14 -13 -7 -74 8 -79 24 -10 63 4 75 26 8 15 6 24 -10
40 -19 19 -60 27 -73 13z"/>
<path d="M18316 4788 c-32 -46 -7 -108 43 -108 35 0 61 28 61 67 0 58 -73 86
-104 41z"/>
<path d="M18776 4788 c-32 -46 -7 -108 43 -108 35 0 61 28 61 67 0 58 -73 86
-104 41z"/>
<path d="M19346 4794 c-27 -26 -18 -34 39 -34 38 0 55 4 55 13 0 36 -65 51
-94 21z"/>
<path d="M19816 4788 c-32 -46 -7 -108 43 -108 35 0 61 28 61 67 0 58 -73 86
-104 41z"/>
<path d="M20316 4788 c-32 -46 -7 -108 43 -108 35 0 61 28 61 67 0 58 -73 86
-104 41z"/>
<path d="M25626 4794 c-27 -26 -18 -34 39 -34 38 0 55 4 55 13 0 36 -65 51
-94 21z"/>
<path d="M26116 4788 c-32 -46 -7 -108 43 -108 35 0 61 28 61 67 0 58 -73 86
-104 41z"/>
<path d="M11736 4764 c-27 -26 -18 -34 39 -34 38 0 55 4 55 13 0 36 -65 51
-94 21z"/>
<path d="M12906 4758 c-32 -46 -7 -108 43 -108 35 0 61 28 61 67 0 58 -73 86
-104 41z"/>
<path d="M0 11101 l0 -334 753 7 c1079 10 7003 7 7057 -4 25 -4 50 -5 56 -2
27 18 94 101 94 118 -1 11 -21 41 -45 67 l-45 49 -667 -3 c-368 -1 -783 -2
-923 -2 l-256 -1 -249 81 c-138 45 -297 96 -355 113 -121 36 -150 46 -205 70
-42 19 -149 55 -277 95 -42 13 -85 28 -95 33 -10 5 -47 16 -83 25 -59 15 -290
16 -2412 19 l-2348 4 0 -335z"/>
<path d="M26765 11429 c-27 -4 -97 -23 -155 -43 -135 -48 -245 -84 -740 -248
l-405 -133 -912 -5 -913 -5 -55 -43 c-30 -24 -55 -46 -55 -50 0 -4 28 -32 63
-63 l62 -56 4373 -5 4372 -6 0 333 0 333 -2792 -1 c-1536 -1 -2815 -5 -2843
-8z"/>
<path d="M7818 10565 c-13 -13 -5357 -20 -6890 -9 l-928 7 0 -335 0 -336 797
3 c439 2 1365 3 2058 2 693 -1 1393 -1 1555 -1 l295 -1 510 171 c732 245 754
252 831 264 81 13 1776 9 1810 -4 17 -6 31 0 60 26 22 19 51 42 67 51 37 24
34 42 -10 71 -21 13 -53 40 -71 60 -29 32 -68 47 -84 31z"/>
<path d="M26199 10550 l-2537 -5 -40 -33 c-23 -17 -53 -37 -67 -42 -37 -14
-43 -39 -14 -61 13 -10 37 -28 54 -41 l29 -23 901 -6 c773 -5 908 -8 955 -21
30 -9 327 -107 660 -219 l605 -204 1355 1 c745 0 2018 1 2828 2 l1472 2 0 330
0 330 -1832 -2 c-1008 -2 -2974 -5 -4369 -8z"/>
</g>
</svg>
